<svg width="454" height="800" viewBox="0 0 454 800" fill="none" xmlns="http://www.w3.org/2000/svg">
<g id="Deg">
<path id="Vector" d="M146.111 340.542C129.545 344.88 117.293 348.932 117.293 348.932C85.0852 355.766 63.2357 333.654 63.4232 313.492C63.9194 298.42 66.0588 283.447 69.8032 268.838C74.7643 251.119 78.3041 219.932 78.3041 176.697C76.1833 112.904 92.9649 66.6456 119.418 41.3194C135.365 26.0614 171.295 5.25383 211.675 5.25383C231.773 4.937 251.722 8.75804 270.281 16.4794L275.532 18.6068L286.179 24.3896C295.681 29.5468 298.216 33.4746 306.943 41.8949C327.132 61.3707 341.165 96.4118 343.395 127.791C344.049 136.843 345.522 160.395 344.095 176.697C344.812 230.565 354.742 260.715 359.869 275.556C363.901 286.354 366.008 297.775 366.094 309.3C366.275 329.463 341.217 355.572 312.41 345.238C312.41 345.238 244.806 331.05 210.587 330.215C191.948 329.761 165.933 335.355 146.111 340.542Z" fill="#B5886A"/>
<path id="Vector_2" d="M338.863 176.697C339.28 205.382 342.179 234.342 350.067 262.005C352.957 272.143 357.042 281.965 359.167 292.303C360.007 296.422 360.529 300.599 360.73 304.797C360.983 307.839 360.874 310.901 360.405 313.917C359.204 319.323 356.69 324.35 353.084 328.554C343.275 340.235 328.39 345.261 313.801 340.191C307.427 337.977 304.688 348.082 311.02 350.281C318.348 352.752 326.191 353.285 333.787 351.829C341.382 350.372 348.471 346.975 354.365 341.968C359.753 337.732 364.084 332.303 367.015 326.108C369.947 319.914 371.399 313.123 371.258 306.271C370.89 297.009 369.292 287.838 366.504 278.998C365.118 274.536 363.503 270.148 362.099 265.702C358.851 255.339 356.27 244.778 354.372 234.085C351.137 215.126 349.45 195.936 349.326 176.704C349.23 169.977 338.765 169.958 338.863 176.704V176.697Z" fill="#211715"/>
<path id="Vector_3" d="M111.03 169.127C109.376 167.692 107.431 166.63 105.328 166.014C103.226 165.399 101.016 165.244 98.848 165.561C96.721 165.862 94.6883 166.636 92.8993 167.825C91.1103 169.014 89.6104 170.589 88.5096 172.434C87.2349 174.981 86.5094 177.767 86.38 180.612C85.4514 191.742 87.6005 202.912 92.5922 212.902C94.9458 217.952 98.3605 222.434 102.604 226.044C105.991 228.745 110.773 231.801 116.848 230.284L117.986 229.994C121.719 244.689 128.61 258.395 138.179 270.157C147.095 281.307 158.324 290.389 171.093 296.776C170.785 302.432 170.114 308.062 169.083 313.632C167.854 320.65 168.239 326.928 158.481 330.448C157.827 330.681 126.971 345.118 125.092 345.758L123.597 346.268C139.726 367.525 178.231 383.025 214.561 383.025C250.245 383.025 286.249 366.071 303.654 345.111L301.57 344.254C300.583 343.847 272.907 330.681 272.262 330.448C262.503 326.923 262.889 320.639 261.66 313.632C260.554 307.436 259.862 301.174 259.587 294.886C284.155 282.843 303.737 249.188 307.22 239.739C307.857 237.806 309.271 233.854 310.35 229.327C314.71 228.686 320.512 228.688 323.821 226.057C328.064 222.447 331.479 217.965 333.832 212.916C338.825 202.925 340.973 191.754 340.042 180.625C339.915 177.78 339.19 174.994 337.915 172.447C336.814 170.602 335.314 169.027 333.525 167.838C331.736 166.649 329.704 165.875 327.577 165.574C325.409 165.257 323.199 165.412 321.096 166.028C318.994 166.643 317.049 167.705 315.394 169.14C298.303 163.909 277.7 136.599 271.113 124.238C266.508 115.6 261.496 96.8695 257.527 83.6539C238.644 108.254 214.648 125.677 184.847 134.188C177.76 136.296 184.439 113.819 185.697 103.197C166.86 121.701 146.27 141.24 127.165 156.86L111.03 169.127Z" fill="white"/>
<path id="Vector_4" d="M306.484 219.686C306.219 224.123 305.381 228.507 303.99 232.729C303.53 234.255 303.024 235.781 302.516 237.291C302.371 237.727 302.226 238.155 302.08 238.575C302.022 238.741 301.945 238.902 301.887 239.07C301.557 240.031 302.285 238.176 302.015 238.771C300.037 243.083 297.786 247.263 295.275 251.287C288.155 263.285 279.076 274.005 268.415 283.004C262.634 287.932 255.801 291.468 248.44 293.343C241.883 294.869 244.658 304.95 251.221 303.433C266.575 299.884 279.353 288.674 289.377 277.019C297.975 267.337 305.16 256.489 310.721 244.796C314.381 236.9 316.495 228.377 316.951 219.686C317.186 212.95 306.721 212.959 306.488 219.686H306.484Z" fill="#211715"/>
<path id="Vector_5" d="M114.729 165.435C111.885 162.916 108.399 161.233 104.657 160.571C100.916 159.909 97.0638 160.294 93.5274 161.683C85.3643 165.018 81.9182 172.192 81.1487 180.612C79.7058 196.439 84.5992 214.454 95.3779 226.386C101.263 232.912 109.317 237.232 118.239 235.323C124.819 233.917 122.036 223.829 115.457 225.233C109.677 226.469 104.267 221.22 101.115 216.974C96.7337 210.769 93.7582 203.683 92.3961 196.21C91.6695 192.516 91.3349 188.756 91.3978 184.991C91.4392 181.698 91.3978 177.624 93.2244 174.747C93.9953 173.656 94.9824 172.736 96.1241 172.044C97.2658 171.351 98.5378 170.901 99.861 170.721C101.184 170.541 102.53 170.635 103.815 170.998C105.101 171.36 106.297 171.984 107.332 172.828C108.33 173.777 109.654 174.305 111.03 174.305C112.407 174.305 113.731 173.777 114.729 172.828C115.7 171.842 116.244 170.513 116.244 169.129C116.244 167.745 115.7 166.417 114.729 165.43V165.435Z" fill="#211715"/>
<path id="Vector_6" d="M110.741 221.848C113.305 235.672 118.246 248.947 125.345 261.083C133.684 274.824 144.924 286.577 158.278 295.522C165.158 300.146 172.733 303.64 180.716 305.872C187.218 307.659 189.993 297.569 183.497 295.784C166.26 291.045 152.005 279 140.945 265.312C130.212 252.031 124.111 235.667 120.839 219.065C120.458 217.734 119.571 216.607 118.368 215.924C117.165 215.24 115.742 215.057 114.405 215.411C113.082 215.804 111.963 216.693 111.282 217.893C110.6 219.092 110.409 220.509 110.749 221.846L110.741 221.848Z" fill="#211715"/>
<path id="Vector_7" d="M252.843 86.2565C255.26 94.3912 257.542 102.57 260.18 110.637C262.136 117.235 264.805 123.601 268.14 129.622C275.232 141.66 284.102 152.558 294.449 161.947C300.029 167.353 306.689 171.517 313.993 174.167C320.423 176.211 323.176 166.102 316.774 164.077C305.516 160.498 295.598 149.144 288.087 139.882C284.365 135.312 280.951 130.501 277.866 125.481C274.975 120.554 272.651 115.316 270.939 109.867C268.003 101.148 265.551 92.2812 262.931 83.4665C261.017 77.0276 250.916 79.7609 252.843 86.2478V86.2565Z" fill="#211715"/>
<path id="Vector_8" d="M253.78 80.0596C243.136 94.1416 229.982 106.137 214.981 115.441C207.604 119.921 199.789 123.636 191.658 126.529C189.499 127.292 187.319 128.002 185.119 128.659C184.553 128.777 183.997 128.939 183.456 129.145C183.02 129.363 182.673 128.948 183.951 129.097C184.522 129.131 185.078 129.291 185.58 129.565C186.082 129.84 186.517 130.222 186.854 130.684C187.617 131.662 186.932 131.209 186.874 130.428C186.972 131.736 186.885 130.211 186.874 129.761C186.86 128.359 186.939 126.957 187.111 125.566C187.859 118.678 190.008 110.624 190.93 103.197C191.514 98.476 184.949 96.6036 181.993 99.4917C163.115 118.037 143.94 136.373 123.466 153.161C122.494 154.147 121.949 155.475 121.949 156.86C121.949 158.244 122.494 159.573 123.466 160.559C124.461 161.512 125.786 162.044 127.165 162.044C128.543 162.044 129.868 161.512 130.864 160.559C151.338 143.775 170.513 125.437 189.396 106.898L180.459 103.193C180.326 104.257 180.389 103.546 180.439 103.345C180.328 103.795 180.295 104.276 180.221 104.734C180.073 105.628 179.914 106.521 179.75 107.415C179.391 109.362 179.007 111.301 178.632 113.246C177.863 117.232 177.13 121.23 176.67 125.267C175.973 131.431 177.067 141.107 185.762 139.333C190.367 138.222 194.866 136.714 199.211 134.827C204.054 132.924 208.792 130.763 213.405 128.353C222.101 123.733 230.289 118.214 237.833 111.886C246.483 104.617 254.313 96.426 261.185 87.4575C262.124 86.4552 262.648 85.1326 262.648 83.7585C262.648 82.3845 262.124 81.0619 261.185 80.0596C260.199 79.0865 258.87 78.5409 257.486 78.5409C256.101 78.5409 254.772 79.0865 253.787 80.0596H253.78Z" fill="#211715"/>
<path id="Vector_9" d="M349.326 176.697C350.118 165.236 350.168 153.736 349.476 142.269C349.187 132.103 348.236 121.967 346.627 111.925C342.486 88.6019 333.181 65.4489 318.409 46.8123C314.296 41.9303 309.917 37.2783 305.293 32.8774C301.031 28.3511 296.211 24.3849 290.949 21.0742C285.157 17.6063 279.891 26.6477 285.667 30.1069C289.731 32.6331 293.459 35.6646 296.76 39.1288C300.709 43.1002 304.844 46.9235 308.502 51.1696C315.507 59.5879 321.276 68.962 325.634 79.0089C330.25 89.3434 333.686 100.165 335.879 111.269C337.58 120.635 338.582 130.114 338.878 139.629C339.7 151.967 339.692 164.347 338.854 176.684C338.865 178.068 339.42 179.393 340.399 180.371C341.377 181.35 342.702 181.905 344.086 181.916C345.465 181.888 346.779 181.328 347.755 180.353C348.73 179.378 349.29 178.063 349.317 176.684L349.326 176.697Z" fill="#211715"/>
<path id="Vector_10" d="M73.0729 176.695C73.0729 193.547 72.5759 210.413 71.1482 227.21C70.3072 238.817 68.6523 250.351 66.1959 261.726C64.9513 267.175 63.3841 272.52 62.3073 278.008C60.8054 285.67 59.6916 293.426 58.9265 301.194C58.024 307.5 57.9895 313.901 58.8241 320.217C59.9122 325.924 62.2815 331.31 65.7534 335.969C70.5427 342.259 76.7721 347.307 83.9178 350.689C91.0635 354.071 98.9167 355.688 106.817 355.404C113.544 355.297 113.574 344.834 106.817 344.941C94.6805 345.133 82.6222 340.664 74.9758 330.928C71.9387 327.078 69.8777 322.55 68.9685 317.732C68.7723 316.726 68.6687 315.705 68.659 314.68C68.611 313.268 68.659 311.846 68.7244 310.438C68.853 307.217 69.108 303.999 69.4306 300.793C70.1303 293.818 71.1744 286.873 72.5541 280.001C73.6004 274.785 75.1 269.697 76.2836 264.525C78.7141 253.27 80.399 241.867 81.3275 230.39C82.9841 212.547 83.5247 194.61 83.5356 176.697C83.5356 169.966 73.0729 169.953 73.0729 176.695Z" fill="#211715"/>
<path id="Vector_11" d="M165.757 298.398C165.434 302.882 164.884 307.348 164.109 311.777C163.769 314.505 163.284 317.213 162.657 319.89C162.565 320.216 161.977 321.736 162.352 320.927C162.109 321.444 161.83 321.944 161.517 322.422C161.066 323.122 161.977 321.923 161.412 322.573C161.238 322.771 161.059 322.965 160.872 323.15C160.454 323.62 159.947 324.003 159.381 324.275C157.93 325.036 156.442 325.723 154.921 326.333C147.188 329.851 139.506 333.484 131.788 337.035C129.796 337.951 127.8 338.863 125.8 339.771C125.087 340.091 124.372 340.405 123.66 340.725C122.337 341.321 124.867 340.29 123.69 340.71C122.371 341.109 121.256 341.999 120.576 343.197C119.896 344.394 119.702 345.808 120.035 347.145C120.414 348.476 121.301 349.606 122.505 350.289C123.709 350.972 125.134 351.155 126.472 350.798C129.547 349.708 132.52 348.156 135.485 346.796C140.229 344.616 144.969 342.426 149.705 340.226C153.201 338.605 156.7 336.985 160.2 335.368C160.494 335.271 160.777 335.144 161.044 334.988C161.011 335.012 159.071 335.775 160.227 335.35C160.796 335.132 161.351 334.899 161.909 334.659C162.957 334.235 163.969 333.729 164.937 333.147C168.204 331.126 170.722 328.094 172.11 324.513C173.068 321.605 173.711 318.602 174.026 315.556C174.966 309.856 175.827 304.165 176.219 298.398C176.219 297.01 175.668 295.679 174.687 294.698C173.706 293.717 172.375 293.166 170.988 293.166C169.6 293.166 168.27 293.717 167.289 294.698C166.308 295.679 165.757 297.01 165.757 298.398Z" fill="#211715"/>
<path id="Vector_12" d="M254.386 295.815C254.85 304.147 255.891 312.438 257.501 320.626C258.117 323.958 259.61 327.066 261.826 329.629C264.043 332.192 266.902 334.118 270.111 335.209C272.085 335.993 268.772 334.539 270.172 335.209C270.686 335.457 271.209 335.69 271.726 335.932C273.358 336.697 274.988 337.465 276.617 338.236C281.03 340.321 285.443 342.41 289.857 344.501C292.869 345.926 295.855 347.456 298.92 348.762C300.128 349.417 301.541 349.588 302.87 349.239C304.2 348.89 305.347 348.049 306.078 346.885C306.769 345.685 306.959 344.261 306.608 342.921C306.257 341.582 305.392 340.434 304.201 339.727C297.699 336.957 291.376 333.685 284.987 330.664C281.888 329.197 278.799 327.697 275.678 326.278C274.061 325.649 272.492 324.906 270.98 324.055C270.256 323.623 269.627 323.046 269.135 322.361C268.642 321.676 268.295 320.897 268.116 320.073C267.377 317.028 266.822 313.942 266.453 310.831C265.636 305.856 265.101 300.84 264.849 295.806C264.82 294.427 264.259 293.114 263.285 292.139C262.31 291.164 260.996 290.603 259.617 290.575C258.234 290.587 256.911 291.142 255.932 292.121C254.954 293.099 254.399 294.422 254.386 295.806V295.815Z" fill="#211715"/>
<path id="Vector_13" d="M271.671 11.4355C251.124 3.11358 229.042 -0.744089 206.89 0.118392C183.905 1.29855 161.51 7.81427 141.479 19.1495C126.632 27.1093 113.691 38.1997 103.552 51.6535C93.1612 66.3001 85.5347 82.7223 81.0483 100.111C74.2062 124.946 72.2554 151.027 73.0684 176.697C73.2864 183.413 83.749 183.454 83.531 176.697C82.3017 137.887 87.0861 95.9017 108.672 62.5935C116.81 50.1887 127.597 39.7433 140.258 32.0098C157.852 20.8424 177.716 13.7399 198.402 11.2197C222.388 8.7875 246.604 12.3272 268.89 21.5232C270.228 21.8826 271.653 21.7005 272.857 21.0163C274.062 20.3321 274.948 19.2009 275.324 17.8678C275.66 16.5313 275.467 15.117 274.787 13.9187C274.107 12.7204 272.991 11.8324 271.671 11.4355Z" fill="#211715"/>
<path id="Vector_14" d="M319.095 172.82C320.108 172 321.274 171.391 322.525 171.028C323.776 170.664 325.087 170.553 326.381 170.701C327.675 170.849 328.927 171.254 330.063 171.891C331.199 172.529 332.196 173.386 332.998 174.413C334.959 177.192 334.959 181.251 335.027 184.507C335.125 188.435 334.792 192.362 334.033 196.217C332.675 203.538 329.788 210.491 325.56 216.621C322.609 220.741 317.118 226.351 311.469 225.34C310.132 225.011 308.721 225.206 307.524 225.885C306.327 226.565 305.436 227.677 305.034 228.993C304.677 230.331 304.86 231.755 305.543 232.959C306.227 234.163 307.356 235.051 308.687 235.43C325.077 238.338 336.152 222.221 341.259 208.872C344.272 200.942 345.703 192.499 345.47 184.019C345.232 175.775 343.336 167.8 335.923 163.168C332.165 160.927 327.793 159.938 323.436 160.343C319.08 160.748 314.965 162.527 311.684 165.422C310.714 166.409 310.171 167.737 310.171 169.121C310.171 170.504 310.714 171.833 311.684 172.82C312.679 173.775 314.004 174.308 315.383 174.308C316.762 174.308 318.088 173.775 319.082 172.82H319.095Z" fill="#211715"/>
<path id="Vector_15" d="M162.265 165.668C166.058 165.398 169.762 164.383 173.163 162.682C176.27 161.25 178.949 159.031 180.934 156.245C181.46 155.347 181.706 154.312 181.641 153.274C181.575 152.235 181.201 151.239 180.567 150.414C179.933 149.589 179.067 148.972 178.08 148.641C177.093 148.311 176.03 148.282 175.027 148.559C173.738 148.97 172.632 149.818 171.901 150.957C171.812 151.088 171.718 151.216 171.624 151.343L172.442 150.284C171.843 151.029 171.157 151.699 170.397 152.28L171.457 151.463C169.98 152.571 168.368 153.487 166.661 154.19L167.91 153.664C166.061 154.441 164.121 154.98 162.136 155.266L163.527 155.079C163.108 155.131 162.688 155.173 162.267 155.199C160.885 155.229 159.564 155.773 158.561 156.725C157.827 157.456 157.327 158.39 157.124 159.406C156.921 160.422 157.025 161.476 157.422 162.434C157.819 163.391 158.491 164.209 159.354 164.784C160.216 165.359 161.23 165.664 162.267 165.661L162.265 165.668Z" fill="#211715"/>
<path id="Vector_16" d="M393.705 404.593C388.781 395.713 379.705 383.79 374.41 379.245C363.483 370.154 351.67 362.184 339.149 355.456C325.853 350.007 305.725 343.154 303.375 344.66C282.831 356.648 242.807 367.353 212.424 367.231C181.647 366.621 151.398 359.12 123.902 345.281C121.439 343.869 100.417 354.449 86.9097 360.171L84.9981 361.043C72.322 366.723 60.9299 374.916 51.5111 385.126C46.7985 390.164 36.5037 405.422 31.5492 428.732C18.4709 490.25 12.4963 612.637 5.23132 694.496L126.489 695.274L357.7 696.756C354.538 662.482 348.153 595.332 348.685 583.901C359.51 605.592 375.11 613.229 393.221 617.964C411.123 622.644 431.972 618.286 440.368 603.756C443.694 598.097 445.887 591.845 446.827 585.349C449.783 566.298 445.366 549.601 441.014 533.689C439.27 527.305 435.957 515.755 432.354 503.742C419.251 456.911 408.919 431.358 393.705 404.6" fill="#F4B3B3"/>
<path id="Vector_17" d="M344.546 587.291C349.441 597.05 356.653 605.462 365.552 611.789C373.379 616.916 382.034 620.65 391.135 622.825C411.23 628.161 436.037 623.816 446.282 603.861C458.205 580.623 452.028 553.708 445.41 529.91C438.871 506.399 432.288 482.767 424.234 459.723C417.32 439.727 408.619 420.394 398.234 401.96C394.91 396.103 385.869 401.37 389.2 407.242C397.596 422.001 404.82 437.398 410.805 453.288C418.887 474.802 425.012 496.974 431.423 519.024C437.561 540.146 445.449 562.669 441.635 584.928C440.039 594.246 436.214 604.064 427.85 609.236C419.956 613.699 410.821 615.467 401.831 614.271C392.133 613.151 382.78 610.001 374.38 605.027C365.407 599.486 358.197 591.505 353.592 582.018C350.49 576.039 341.457 581.325 344.557 587.297L344.546 587.291Z" fill="#211715"/>
<path id="Vector_18" d="M362.932 696.756C360.006 665.074 356.828 633.392 354.666 601.642C354.302 596.278 353.901 590.892 353.89 585.512C353.875 578.781 343.412 578.768 343.428 585.512C343.451 597.117 344.679 608.776 345.62 620.329C347.011 637.387 348.561 654.433 350.128 671.476C350.907 679.904 351.687 688.332 352.469 696.761C352.505 698.137 353.067 699.447 354.041 700.42C355.014 701.393 356.324 701.956 357.7 701.992C359.085 701.982 360.41 701.428 361.389 700.449C362.368 699.47 362.922 698.145 362.932 696.761V696.756Z" fill="#211715"/>
<path id="Vector_19" d="M10.4626 694.496C14.6978 646.699 17.6753 598.806 21.6926 550.983C23.6739 527.416 25.834 503.856 28.6894 480.373C31.0217 461.12 33.2058 441.276 38.4568 422.554C41.192 412.411 45.5108 402.762 51.2539 393.965C51.7567 393.211 52.2747 392.467 52.808 391.733C53.0274 391.432 53.2498 391.132 53.475 390.833C52.7317 391.818 53.5317 390.763 53.6625 390.615C54.9071 389.117 56.2411 387.714 57.6143 386.332C61.8512 382.02 66.4797 378.112 71.4403 374.657C81.1291 367.983 92.0146 363.695 102.667 358.854C107.181 356.805 111.741 354.678 116.284 352.827C118.093 352.088 119.922 351.358 121.794 350.791C122.374 350.615 123.021 350.534 123.586 350.327C124.534 349.976 122.594 350.347 123.126 350.397C124.619 350.539 119.693 348.775 121.942 350.161C127.407 353.198 133.124 355.757 139.029 357.81C144.98 360.154 151.03 362.22 157.179 364.007C170.888 368.044 184.971 370.684 199.211 371.887C224.555 373.981 250.362 369.766 274.559 362.272C285.094 359.197 295.273 355.014 304.927 349.795C305.66 349.383 306.928 349.202 305.058 349.577C304.825 349.623 303.75 349.473 304.332 349.68C304.634 349.726 304.939 349.737 305.243 349.712C306.418 349.712 304.371 349.551 305.198 349.712C307.284 350.096 309.339 350.606 311.373 351.184C316.545 352.646 321.639 354.401 326.687 356.241C331.451 357.818 336.076 359.786 340.516 362.126C345.396 364.875 350.132 367.887 354.775 371.019C364.128 377.34 372.769 383.936 379.672 392.938C383.178 397.473 386.357 402.252 389.182 407.24C392.478 413.112 401.517 407.843 398.217 401.958C395.123 396.548 391.639 391.37 387.791 386.467C384.595 382.093 380.931 378.08 376.864 374.5C367.342 366.582 357.135 359.526 346.364 353.414C336.546 348.27 326.174 344.261 315.449 341.467C311.804 340.12 307.967 339.368 304.084 339.239C301.881 339.568 299.786 340.407 297.965 341.689C295.746 342.875 293.482 343.973 291.191 345.009C280.374 349.73 269.143 353.436 257.64 356.079C245.323 359.168 232.742 361.093 220.064 361.827C192.637 363.198 164.699 357.093 139.389 346.75C136.838 345.708 134.321 344.57 131.832 343.402C129.342 342.234 126.469 340.089 123.621 339.965C120.298 340.144 117.049 341.01 114.078 342.506C103.768 346.648 93.6952 351.458 83.5486 355.99C63.8178 364.8 46.3909 378.894 36.6236 398.396C26.9762 417.656 23.8505 439.175 20.8599 460.281C17.6078 483.231 15.2275 506.299 13.1197 529.378C8.59899 578.888 5.47763 628.52 1.40156 678.074C0.951083 683.549 0.483897 689.023 0 694.496C0.0108292 695.88 0.565462 697.204 1.54419 698.183C2.52291 699.162 3.84724 699.716 5.23132 699.727C6.61003 699.699 7.92451 699.139 8.8996 698.164C9.87468 697.189 10.4348 695.875 10.4626 694.496Z" fill="#211715"/>
<path id="Vector_20" d="M65.8123 438.771C68.8486 461.876 72.055 484.981 76.033 507.951C78.374 521.465 80.3749 535.102 82.1492 548.657C84.0914 563.495 86.125 578.435 86.8269 593.392C87.4351 606.348 85.7153 619.514 84.5796 632.398C82.7574 653.09 80.6561 673.762 79.1303 694.481C79.1423 695.864 79.6973 697.188 80.6758 698.166C81.6542 699.145 82.9779 699.7 84.3617 699.712C85.7409 699.686 87.0563 699.126 88.0317 698.151C89.0071 697.175 89.5667 695.86 89.593 694.481C90.9575 675.953 92.7841 657.447 94.4516 638.937C95.7027 625.039 97.538 610.908 97.392 596.93C96.8729 582.872 95.5499 568.856 93.4293 554.95C91.5918 540.383 89.6409 525.81 87.204 511.33C83.1396 487.197 79.4965 463.011 76.2749 438.771C76.2323 437.397 75.6675 436.091 74.6955 435.119C73.7235 434.147 72.4175 433.583 71.0436 433.54C69.6586 433.548 68.3327 434.102 67.3533 435.081C66.374 436.06 65.8203 437.386 65.8123 438.771Z" fill="#211715"/>
<path id="Vector_21" d="M157.038 211.932C153.858 216.386 150.499 220.573 149.051 225.968C147.384 232.134 148.275 239.743 153.439 244.059C155.823 246.02 158.777 247.156 161.86 247.299C164.943 247.441 167.989 246.582 170.543 244.851C173.105 242.98 175.073 240.409 176.209 237.447C177.346 234.485 177.603 231.258 176.949 228.154C175.748 221.743 171.385 216.181 167.37 211.259C166.386 210.282 165.056 209.734 163.67 209.734C162.283 209.734 160.953 210.282 159.969 211.259C159.024 212.258 158.497 213.582 158.497 214.958C158.497 216.334 159.024 217.657 159.969 218.657C160.257 219.008 160.541 219.359 160.822 219.714C160.924 219.84 161.463 220.521 161.04 219.991C160.617 219.461 161.085 220.052 161.142 220.128C161.837 221.055 162.522 221.988 163.171 222.947C163.721 223.762 164.261 224.592 164.741 225.445C164.968 225.84 165.186 226.241 165.395 226.648C165.495 226.844 165.591 227.044 165.687 227.245C165.739 227.354 166.241 228.518 166.003 227.929C165.785 227.404 166.077 228.147 166.094 228.191C166.199 228.492 166.312 228.79 166.402 229.093C166.567 229.621 166.648 230.183 166.814 230.704C166.99 231.262 166.814 230.608 166.814 230.486C166.833 230.743 166.855 230.998 166.864 231.256C166.873 231.513 166.657 232.579 166.807 232.799C166.589 232.485 166.999 231.833 166.807 232.553C166.759 232.74 166.722 232.93 166.672 233.115C166.672 233.156 166.251 234.397 166.258 234.401C166.077 234.283 166.744 233.503 166.308 234.203C166.175 234.421 166.066 234.654 165.933 234.872C165.835 235.033 165.715 235.188 165.619 235.354C166.428 234.512 165.301 235.918 165.619 235.354C165.305 235.674 164.985 235.975 164.658 236.282C164.222 236.696 164.933 236.021 164.952 236.044C164.972 236.068 164.399 236.391 164.318 236.435C164.157 236.526 163.982 236.6 163.821 236.69C163.206 237.034 164.721 236.441 164.039 236.581C163.86 236.616 163.679 236.696 163.503 236.742C163.416 236.766 162.284 237.123 163.1 236.868C163.804 236.65 163.119 236.855 162.868 236.868C162.681 236.868 162.496 236.882 162.308 236.879C162.062 236.845 161.813 236.832 161.565 236.84C161.615 236.812 162.594 237.058 162.04 236.895C161.634 236.751 161.217 236.638 160.793 236.557C160.87 236.498 161.912 237.152 161.029 236.646L160.39 236.28C159.49 235.763 160.547 236.43 160.56 236.43C160.451 236.43 160.02 235.912 159.989 235.883C159.307 235.229 160.316 236.504 159.828 235.698C159.719 235.521 158.984 234.512 159.065 234.307C159.085 234.257 159.383 235.323 159.213 234.597C159.124 234.211 158.971 233.836 158.88 233.448C158.825 233.215 158.792 232.978 158.738 232.744C158.561 231.968 158.71 233.507 158.753 232.723C158.784 232.18 158.71 231.633 158.734 231.077C158.749 230.763 158.782 230.451 158.806 230.14C158.806 230.238 158.64 230.953 158.786 230.358C158.932 229.763 159.041 229.124 159.222 228.514C159.416 227.827 159.658 227.164 159.904 226.493C159.874 226.58 159.577 227.193 159.839 226.652C159.983 226.356 160.116 226.055 160.275 225.761C160.785 224.794 161.35 223.856 161.966 222.953C163.274 220.991 164.726 219.128 166.097 217.207C166.791 216.008 166.983 214.583 166.632 213.242C166.28 211.901 165.413 210.754 164.22 210.049C163.013 209.386 161.598 209.21 160.266 209.56C158.935 209.909 157.787 210.756 157.062 211.926L157.038 211.932Z" fill="#211715"/>
<path id="Vector_22" d="M342.37 504.974L376.335 528.323C377.536 529.01 378.958 529.198 380.296 528.847C381.634 528.496 382.781 527.634 383.491 526.446C384.164 525.242 384.345 523.823 383.995 522.489C383.645 521.154 382.792 520.007 381.614 519.288L347.65 495.939C346.452 495.239 345.024 495.043 343.682 495.395C342.34 495.748 341.193 496.619 340.493 497.817C339.792 499.015 339.597 500.442 339.949 501.784C340.301 503.126 341.172 504.274 342.37 504.974Z" fill="#211715"/>
<path id="Vector_23" d="M177.414 710.922C163.396 717.522 156.214 732.519 151.493 746.493C150.05 749.98 149.515 753.775 149.936 757.525C150.103 759.291 150.63 761.005 151.486 762.559C152.342 764.113 153.508 765.475 154.913 766.559C160.929 770.919 168.769 769.158 175.075 766.492C182.658 763.29 189.012 755.092 184.84 746.733C181.287 739.62 172.065 737.648 164.843 738.389C149.398 739.976 135.759 750.741 126.982 763.037C122.12 769.657 118.724 777.236 117.02 785.27C116.194 789.721 116.584 794.582 120.266 797.675C122.002 799.23 124.27 800.057 126.599 799.985C128.929 799.912 131.141 798.946 132.777 797.287C137.183 792.232 129.813 784.802 125.379 789.889C125.393 789.876 127.537 789.407 127.145 789.915C127.175 789.294 127.163 788.671 127.108 788.051C127.573 785.442 128.331 782.893 129.366 780.453C131.149 775.877 133.548 771.567 136.498 767.641C142.462 759.33 150.882 753.098 160.573 749.824C164.658 748.601 170.63 747.568 174.39 750.299C178.022 752.934 172.902 756.184 170.388 757.156C168.411 758.042 166.297 758.587 164.137 758.767C162.99 758.789 161.856 758.528 160.835 758.006C158.596 755.099 161.325 749.804 162.579 746.489C166.574 735.836 171.951 725.012 182.704 719.944C183.893 719.236 184.757 718.089 185.108 716.75C185.459 715.412 185.27 713.988 184.581 712.788C183.86 711.613 182.713 710.761 181.379 710.411C180.045 710.062 178.627 710.241 177.422 710.911L177.414 710.922Z" fill="#211715"/>
<path id="Vector_24" d="M178.654 530.727C172.25 543.738 172.958 559.486 174.571 574.103C182.789 574.653 185.54 587.286 187.623 593.178C192.726 607.558 201.538 620.333 213.169 630.209C224.799 640.085 238.834 646.711 253.85 649.415C281.567 654.049 307.388 648.194 333.22 624.42C338.233 619.803 345.147 609.86 352.951 612.824C357.746 608.122 360.865 599.347 363.256 593.111C366.388 585.584 367.748 577.439 367.232 569.304C365.342 548.688 347.961 532.451 330.308 523.8C316.548 517.286 302.011 512.559 287.051 509.736C272.543 506.818 258.085 503.361 243.252 502.543C229.101 501.774 214.571 503.415 201.724 509.392C193.219 513.128 185.954 519.208 180.777 526.921C180.001 528.151 179.292 529.421 178.654 530.727Z" fill="#F3736F"/>
<path id="Vector_25" d="M225.272 686.169C223.494 683.65 222.723 680.558 223.11 677.499C223.497 674.44 225.015 671.637 227.364 669.641C229.907 667.841 233.027 667.049 236.12 667.42C239.213 667.791 242.058 669.298 244.102 671.648C248.843 677.998 245.526 684.587 240.687 688.391C238.306 690.019 235.401 690.695 232.546 690.283C229.692 689.872 227.095 688.404 225.272 686.169Z" fill="white"/>
<path id="Vector_26" d="M229.79 683.525C229.52 683.137 229.258 682.745 229.025 682.333C228.914 682.139 228.807 681.936 228.707 681.738C228.249 680.912 228.977 682.538 228.772 681.956C228.48 681.148 228.261 680.314 228.118 679.467L228.304 680.857C228.169 679.836 228.161 678.803 228.28 677.78L228.092 679.17C228.183 678.468 228.329 677.774 228.528 677.095C228.626 676.77 228.777 676.452 228.864 676.127C228.476 677.588 228.532 676.884 228.733 676.461C229.006 675.89 229.317 675.338 229.664 674.809C229.827 674.562 230.008 674.329 230.174 674.087C229.195 675.508 229.653 674.754 229.956 674.423C230.259 674.092 230.61 673.769 230.939 673.451C231.349 673.05 229.762 674.261 230.806 673.581C231.046 673.427 231.292 673.281 231.545 673.146C231.981 672.928 232.835 672.723 231.292 673.207C231.604 673.111 231.902 672.989 232.216 672.882C232.845 672.694 233.488 672.557 234.139 672.472L232.748 672.657C233.896 672.519 235.055 672.519 236.203 672.657L234.812 672.47C235.863 672.627 236.897 672.885 237.899 673.239C238.738 673.525 236.573 672.611 237.751 673.189C237.968 673.292 238.173 673.407 238.38 673.518C238.588 673.629 238.784 673.756 238.982 673.882C239.18 674.009 240.024 674.643 239.2 674.009C238.376 673.374 239.2 674.041 239.364 674.187C239.527 674.333 239.686 674.499 239.839 674.665C240.275 675.129 240.057 675.303 239.586 674.285C239.796 674.635 240.024 674.972 240.27 675.297C240.473 675.626 240.643 675.97 240.83 676.31C241.308 677.182 240.497 675.221 240.787 676.217C240.995 676.873 241.157 677.543 241.271 678.222L241.083 676.831C241.181 677.668 241.181 678.513 241.083 679.349L241.271 677.958C241.179 678.643 241.025 679.317 240.813 679.975C240.772 680.105 240.726 680.236 240.678 680.367C240.479 680.873 240.551 680.712 240.896 679.885C240.702 680.19 240.575 680.563 240.397 680.881C240.078 681.455 239.643 681.971 239.326 682.531C240.02 681.289 239.732 682.01 239.435 682.355C239.189 682.64 238.932 682.917 238.668 683.185C238.206 683.654 237.657 684.042 237.206 684.511C238.234 683.442 237.801 684.075 237.347 684.36C237.162 684.473 236.975 684.578 236.783 684.683C236.312 684.931 235.438 685.069 237.033 684.611C236.815 684.672 236.613 684.763 236.399 684.829C235.817 685.007 235.223 685.141 234.62 685.23L236.011 685.042C234.845 685.197 233.664 685.197 232.497 685.042L233.888 685.23C233.26 685.138 232.64 685.002 232.031 684.822C231.891 684.779 231.19 684.639 231.135 684.511C231.135 684.511 232.384 685.095 231.73 684.757C231.556 684.667 231.377 684.585 231.203 684.493C230.924 684.343 230.653 684.184 230.39 684.009C230.259 683.924 230.137 683.822 230.002 683.741C229.531 683.453 230.884 684.526 230.505 684.123C230.287 683.894 230.032 683.702 229.812 683.469C229.498 683.142 228.755 682.113 229.79 683.519C229.066 682.373 227.957 681.522 226.662 681.121C225.302 680.759 223.854 680.949 222.632 681.649C221.445 682.36 220.585 683.507 220.234 684.845C219.883 686.183 220.07 687.605 220.755 688.807C222.809 691.693 225.754 693.824 229.136 694.875C232.19 695.791 235.435 695.866 238.529 695.093C241.596 694.262 244.353 692.549 246.456 690.167C248.965 687.615 250.666 684.381 251.348 680.868C251.704 678.837 251.657 676.756 251.208 674.743C250.759 672.73 249.918 670.826 248.732 669.139C246.67 666.301 243.775 664.175 240.449 663.058C237.461 661.963 234.227 661.726 231.111 662.373C227.996 663.02 225.123 664.525 222.817 666.718C220.002 669.608 218.261 673.376 217.886 677.393C217.51 681.411 218.522 685.436 220.753 688.798C221.471 689.948 222.582 690.8 223.879 691.196C225.24 691.557 226.689 691.367 227.911 690.668C229.092 689.956 229.949 688.812 230.3 687.478C230.651 686.144 230.468 684.726 229.79 683.525Z" fill="#211715"/>
<path id="Vector_27" d="M253.85 649.419C281.567 654.053 307.388 648.199 333.22 624.424C338.593 619.479 346.144 608.419 354.634 613.665C358.086 615.799 358.808 619.507 358.72 623.389C358.086 628.133 356.276 632.643 353.454 636.509C328.128 670.586 288.457 684.502 247.067 674.157C204.765 663.585 175.764 641.71 165.172 598.05C164.281 594.377 163.747 584.754 165.081 581.225C166.415 577.696 168.098 575.139 171.934 574.3C182.231 572.052 185.33 586.696 187.628 593.178C192.729 607.558 201.541 620.334 213.17 630.21C224.8 640.087 238.834 646.714 253.85 649.419Z" fill="white"/>
<path id="Vector_28" d="M252.459 654.463C270.698 657.816 289.519 655.765 306.608 648.563C315.917 644.357 324.574 638.838 332.315 632.173C335.513 629.437 338.568 626.539 341.47 623.492C343.65 621.257 346.425 618.18 349.404 617.587C349.873 617.493 350.356 617.502 350.821 617.615C351.285 617.728 351.719 617.942 352.092 618.241C352.571 618.705 352.944 619.269 353.184 619.891C353.425 620.514 353.527 621.182 353.485 621.848C353.391 625.677 352.135 629.388 349.884 632.487C344.883 639.823 338.77 646.335 331.764 651.789C318.736 662.406 303.028 669.219 286.373 671.476C268.774 673.839 251.31 670.713 234.631 665.076C220.539 660.628 207.538 653.272 196.467 643.484C185.731 633.399 177.71 620.771 173.144 606.767C170.414 599.846 169.221 592.414 169.645 584.987C169.811 583.058 170.718 579.891 173.351 579.346C173.006 579.415 174.545 579.291 174.839 579.346C173.815 579.184 175.759 579.797 175.304 579.579C175.951 580.055 176.547 580.597 177.082 581.196C180.738 586.068 181.673 592.553 184.075 598.433C187.564 606.995 192.288 614.999 198.095 622.192C209.185 635.856 223.967 646.046 240.682 651.551C244.54 652.811 248.485 653.785 252.485 654.465C253.822 654.795 255.233 654.599 256.43 653.92C257.627 653.24 258.518 652.128 258.92 650.812C259.277 649.474 259.094 648.05 258.411 646.846C257.727 645.642 256.598 644.755 255.267 644.375C241.869 642.014 229.273 636.344 218.622 627.881C207.971 619.419 199.601 608.431 194.272 595.914C191.56 589.492 190.37 582.229 186.425 576.37C184.362 572.941 181.1 570.4 177.27 569.238C175.053 568.7 172.739 568.705 170.525 569.253C168.311 569.801 166.262 570.877 164.553 572.388C157.901 578.491 158.531 589.032 159.723 597.161C161.299 605.816 164.108 614.2 168.065 622.057C171.575 629.493 176.028 636.445 181.315 642.743C191.879 654.952 205.163 664.509 220.097 670.643C237.391 678.054 256.256 683.002 275.172 682.732C294.145 682.5 312.679 676.997 328.706 666.84C336.973 661.538 344.474 655.128 351 647.789C357.28 640.722 364.412 631.91 363.943 621.85C363.983 619.345 363.394 616.869 362.229 614.651C361.065 612.432 359.362 610.541 357.277 609.151C355.17 607.899 352.777 607.207 350.326 607.14C347.875 607.073 345.448 607.633 343.275 608.768C339.508 610.85 336.142 613.589 333.338 616.854C329.987 620.359 326.405 623.636 322.618 626.663C307.503 639.108 288.483 645.823 268.905 645.627C264.328 645.532 259.763 645.111 255.245 644.369C253.908 644.042 252.497 644.238 251.3 644.918C250.104 645.597 249.212 646.709 248.808 648.024C248.449 649.362 248.631 650.787 249.314 651.992C249.997 653.197 251.127 654.084 252.459 654.463Z" fill="#211715"/>
<path id="Vector_29" d="M356.767 616.418C360.107 612.717 362.757 608.448 364.593 603.813C366.642 599.215 368.434 594.507 369.961 589.71C373.521 579.032 373.428 567.473 369.698 556.853C362.491 537.848 345.566 524.657 327.428 516.746C316.463 512.002 305.066 508.322 293.396 505.758C281.46 503.093 269.389 500.499 257.274 498.783C234.934 495.636 210.064 496.368 190.793 509.601C180.875 516.195 173.675 526.152 170.521 537.637C167.348 549.429 168.019 561.862 169.316 573.872C169.355 575.248 169.919 576.556 170.891 577.528C171.864 578.501 173.172 579.065 174.547 579.104C175.932 579.095 177.258 578.541 178.237 577.562C179.216 576.583 179.77 575.257 179.779 573.872C177.817 555.761 177.1 535.427 191.706 522.106C206.611 508.511 228.803 506.399 248.008 508.141C259.104 509.416 270.119 511.317 281 513.837C291.691 515.861 302.233 518.6 312.556 522.037C329.366 527.937 346.372 536.941 356.018 552.553C361.485 561.149 363.374 571.542 361.279 581.512C360.019 586.846 358.299 592.059 356.137 597.095C354.66 601.457 352.367 605.499 349.38 609.005C344.718 613.864 352.105 621.273 356.78 616.403L356.767 616.418Z" fill="#211715"/>
<path id="Vector_30" d="M246.33 697.698C243.718 693.998 242.586 689.455 243.154 684.961C243.723 680.468 245.952 676.351 249.403 673.418C256.675 667.533 269.021 669.728 273.99 676.367C280.955 685.694 276.081 695.372 268.977 700.959C262.922 705.713 251.415 704.81 246.33 697.698Z" fill="white"/>
<path id="Vector_31" d="M250.846 695.058C250.267 694.217 249.736 693.344 249.255 692.443C249.231 692.397 248.871 691.675 249.118 692.194C249.364 692.713 249.041 692.007 249.02 691.946C248.815 691.377 248.627 690.801 248.477 690.215C248.368 689.79 248.309 689.354 248.202 688.929C248.42 689.801 248.22 689.136 248.187 688.632C248.126 687.736 248.204 686.865 248.222 685.971C248.222 685.356 248.207 686.346 248.152 686.372C248.203 686.181 248.236 685.985 248.25 685.788C248.332 685.34 248.43 684.896 248.544 684.456C248.64 684.085 248.748 683.722 248.867 683.366C248.939 683.148 249.338 681.89 249.124 682.588C248.911 683.286 249.286 682.244 249.381 682.047C249.538 681.729 249.702 681.413 249.874 681.104C250.26 680.418 250.681 679.752 251.134 679.109C251.243 678.991 251.339 678.862 251.419 678.723C251.419 678.723 250.715 679.556 251.082 679.175C251.286 678.957 251.465 678.721 251.664 678.503C252.06 678.067 252.496 677.697 252.915 677.291C253.414 676.81 252.106 677.81 252.915 677.291C253.22 677.099 253.516 676.895 253.828 676.714C254.188 676.496 254.593 676.347 254.942 676.127C255.454 675.805 254.493 676.317 254.506 676.293C254.716 676.174 254.943 676.088 255.179 676.04C255.86 675.801 256.555 675.606 257.261 675.456C257.453 675.415 258.164 675.168 258.327 675.262C258.375 675.288 257.207 675.345 257.837 675.338C258.076 675.338 258.32 675.292 258.56 675.279C259.348 675.231 260.138 675.231 260.925 675.279C261.093 675.279 261.915 675.249 262.015 675.371C262.037 675.399 260.925 675.175 261.525 675.306C261.76 675.358 262.002 675.386 262.237 675.432C262.946 675.569 263.646 675.744 264.336 675.955C264.735 676.077 265.123 676.223 265.518 676.358C265.651 676.404 266.237 676.631 265.551 676.358C264.864 676.086 265.588 676.38 265.729 676.452C266.351 676.764 266.961 677.084 267.549 677.457C267.835 677.638 268.105 677.851 268.395 678.028C268.881 678.327 267.974 677.756 268.005 677.723C268.035 677.69 268.474 678.122 268.511 678.159C268.801 678.413 269.077 678.681 269.339 678.963C269.5 679.133 270.089 679.964 269.672 679.297C269.236 678.584 270.069 679.874 270.204 680.081C270.518 680.565 270.81 681.06 271.076 681.57C271.235 681.875 271.612 682.863 271.318 682.019C271.466 682.442 271.621 682.858 271.754 683.29C271.887 683.721 271.959 684.129 272.057 684.552C272.225 685.273 272.262 684.626 272.057 684.417C272.155 684.517 272.112 685.101 272.118 685.247C272.135 685.657 272.138 686.069 272.118 686.481C272.118 686.684 272.077 686.891 272.077 687.091C272.077 687.745 272.107 686.675 272.146 686.71C272.38 686.928 271.63 688.964 271.53 689.269C271.469 689.454 271.035 690.577 271.29 689.975C271.545 689.373 271.275 689.997 271.224 690.095C271.102 690.339 270.985 690.585 270.856 690.827C270.438 691.617 269.97 692.378 269.454 693.107C269.335 693.277 269.21 693.443 269.088 693.611C269.125 693.561 269.659 692.935 269.267 693.369C268.988 693.678 268.731 694.005 268.452 694.313C267.8 695.031 267.108 695.711 266.379 696.351C266.226 696.484 265.258 697.316 265.834 696.83C266.409 696.344 265.594 696.987 265.433 697.092C264.997 697.369 263.885 697.689 263.604 698.071C263.628 698.04 264.618 697.713 264.101 697.853C263.883 697.909 263.687 698.003 263.48 698.071C263.059 698.208 262.632 698.326 262.2 698.428C261.808 698.46 261.42 698.537 261.045 698.657C261.056 698.639 262.165 698.552 261.594 698.585C261.376 698.6 261.141 698.633 260.914 698.65C260.11 698.709 259.302 698.716 258.497 698.672C258.386 698.672 257.3 698.528 257.285 698.563C257.305 698.517 258.375 698.77 257.813 698.624C257.531 698.552 257.237 698.522 256.954 698.458C256.154 698.282 255.389 698.023 254.611 697.774C254.447 697.722 253.904 697.613 254.589 697.774C255.273 697.935 254.613 697.774 254.419 697.685C254.057 697.499 253.695 697.321 253.342 697.118C252.989 696.915 252.658 696.682 252.317 696.464C252.1 696.325 251.698 695.825 252.152 696.357C252.605 696.889 252.152 696.342 252.015 696.213C251.718 695.932 251.417 695.662 251.143 695.366C250.894 695.102 250.011 693.933 250.844 695.067C250.121 693.894 248.974 693.045 247.642 692.696C246.309 692.346 244.893 692.523 243.688 693.19C242.501 693.901 241.64 695.048 241.289 696.386C240.938 697.724 241.126 699.147 241.811 700.348C244.463 703.856 248.095 706.5 252.248 707.946C256.402 709.391 260.89 709.574 265.147 708.47C269.244 707.355 272.921 705.057 275.719 701.863C279.099 698.412 281.379 694.036 282.271 689.288C283.15 683.9 281.853 678.383 278.666 673.95C275.993 670.311 272.264 667.586 267.985 666.144C260.186 663.356 250.33 664.732 244.471 670.889C240.72 674.753 238.41 679.788 237.929 685.151C237.447 690.514 238.822 695.88 241.824 700.35C242.171 700.944 242.631 701.463 243.179 701.878C243.726 702.293 244.35 702.596 245.014 702.771C245.679 702.945 246.371 702.986 247.052 702.893C247.733 702.8 248.388 702.573 248.981 702.226C249.575 701.879 250.094 701.419 250.509 700.872C250.924 700.324 251.227 699.701 251.402 699.036C251.576 698.371 251.617 697.679 251.524 696.998C251.43 696.318 251.204 695.662 250.857 695.069L250.846 695.058Z" fill="#211715"/>
<path id="Vector_32" d="M238.261 523.362C237.576 519.128 237.599 514.81 238.328 510.584C239.536 500.929 241.977 491.469 245.593 482.435C248.335 474.624 254.055 468.215 261.505 464.605C266.017 462.301 270.66 462.081 281.776 463.363C288.923 463.757 295.966 465.253 302.656 467.799C313.157 471.89 322.922 477.66 331.572 484.883C340.232 492.174 347.828 501.488 343.885 511.857C337.477 521.969 331.592 534.818 325.323 543.245C322.66 546.529 319.131 549 315.135 550.379C312.363 551.341 309.344 551.316 306.588 550.31C305.236 549.767 304.115 548.769 303.421 547.487C302.726 546.206 302.501 544.723 302.785 543.293C301.886 546.663 300.018 549.695 297.412 552.012C294.717 554.192 290.929 556.184 287.79 554.728C283.612 552.79 280.918 549.431 281.883 542.585C279.071 548.206 273.916 551.853 269.071 550.469C267.476 549.908 266.019 549.014 264.797 547.847C263.574 546.68 262.614 545.266 261.98 543.699C260.577 539.524 258.292 530.838 258.647 526.479C258.116 532.081 252.797 537.51 247.291 536.349C245.096 535.886 240.281 531.686 238.908 526.379C238.664 525.387 238.446 524.397 238.261 523.362Z" fill="white"/>
<path id="Vector_33" d="M243.304 521.971C242.169 515.16 243.945 507.112 245.484 500.22C246.905 492.604 249.577 485.276 253.392 478.534C254.836 476.192 256.673 474.117 258.822 472.4C259.943 471.541 261.126 470.768 262.362 470.085C263.016 469.71 263.689 469.37 264.356 469.017C264.563 468.908 264.779 468.799 264.995 468.714C264.513 468.932 264.616 468.858 265.045 468.714C266.953 468.012 268.983 467.703 271.013 467.807C274.631 467.786 278.182 468.361 281.781 468.588C295.626 469.46 308.561 475.075 320.028 482.704C326.097 486.743 332.553 491.599 336.651 497.731C338.505 500.192 339.577 503.154 339.729 506.231C339.711 509.791 337.287 512.566 335.587 515.545C331.249 523.137 327.374 531.039 322.452 538.28C320.512 541.324 317.697 543.711 314.376 545.126C312.754 545.841 310.949 546.032 309.213 545.673C308.87 545.556 307.735 545.148 307.837 544.669C308.206 543.331 308.028 541.901 307.343 540.695C306.658 539.488 305.522 538.603 304.184 538.234C302.846 537.865 301.417 538.043 300.21 538.728C299.003 539.413 298.118 540.55 297.749 541.887C297.149 544.092 295.986 546.103 294.373 547.722C293.329 548.668 291.402 550.209 289.913 549.928C289.368 549.789 288.862 549.527 288.433 549.163C288.004 548.799 287.663 548.342 287.437 547.827C286.904 546.123 286.797 544.314 287.123 542.559C287.755 537.316 279.677 535.564 277.376 539.919C275.185 544.06 270.032 548.516 267.042 542.269C266.052 539.767 265.328 537.168 264.881 534.515C264.174 531.887 263.839 529.172 263.887 526.45C263.873 525.067 263.318 523.745 262.34 522.767C261.362 521.789 260.039 521.233 258.656 521.219C257.279 521.253 255.968 521.815 254.994 522.789C254.021 523.763 253.459 525.074 253.425 526.45C253.108 527.963 252.278 529.32 251.075 530.291C250.516 530.703 249.889 531.013 249.222 531.209C248.834 531.351 247.936 531.017 248.786 531.353C245.486 530.062 243.952 525.385 243.289 521.956C242.909 520.625 242.022 519.496 240.819 518.813C239.616 518.129 238.192 517.945 236.855 518.301C235.532 518.697 234.413 519.59 233.735 520.793C233.056 521.996 232.87 523.415 233.214 524.753C234.522 531.523 239.084 540.209 246.661 541.499C255.951 543.08 262.767 534.879 263.892 526.459H253.429C253.404 530.778 254.019 535.077 255.256 539.215C256.378 543.677 257.603 548.03 260.964 551.371C262.716 553.251 264.946 554.619 267.414 555.331C269.883 556.043 272.499 556.071 274.982 555.412C277.467 554.548 279.756 553.201 281.718 551.448C283.68 549.696 285.275 547.572 286.413 545.2L276.665 542.561C275.736 550.257 279.571 558.087 287.524 560.105C297.3 562.588 305.18 552.734 307.841 544.671L297.754 541.889C297.225 544.245 297.447 546.706 298.388 548.929C299.33 551.151 300.945 553.023 303.005 554.281C305.161 555.444 307.542 556.13 309.987 556.291C312.432 556.452 314.882 556.086 317.173 555.216C326.472 552.104 331.714 543.768 336.343 535.71C338.7 531.608 340.921 527.427 343.24 523.305C345.559 519.183 348.851 515.092 349.753 510.406C351.591 500.874 346.664 492.358 340.217 485.725C327.207 472.553 310.658 463.436 292.573 459.479C288.483 458.642 284.401 458.415 280.275 457.968C276.409 457.433 272.502 457.261 268.604 457.454C261.609 458.186 255.07 461.275 250.062 466.214C242.762 473.03 239.163 483.233 236.602 492.628C233.807 502.872 231.447 514.15 233.217 524.759C233.595 526.091 234.482 527.22 235.686 527.904C236.889 528.587 238.314 528.77 239.651 528.412C240.973 528.017 242.091 527.126 242.772 525.926C243.453 524.725 243.643 523.309 243.304 521.971Z" fill="#211715"/>
<path id="Vector_34" d="M307.844 544.677C308.325 542.225 309.065 539.83 310.05 537.532C310.677 535.854 311.338 534.189 312.011 532.532C312.221 532.022 312.431 531.513 312.643 531.006C313.186 529.698 312.208 532.013 312.772 530.703C313.197 529.718 313.62 528.741 314.052 527.754C315.625 524.188 317.264 520.648 319.032 517.176C319.732 515.8 320.449 514.436 321.212 513.098C321.517 512.568 321.829 512.038 322.158 511.522C322.457 511.057 323.73 509.414 322.376 511.118C323.319 510.117 323.844 508.794 323.844 507.419C323.844 506.044 323.319 504.721 322.376 503.72C321.39 502.748 320.061 502.203 318.677 502.203C317.293 502.203 315.964 502.748 314.978 503.72C310.599 509.205 307.826 516.108 305.017 522.466C303.273 526.405 301.599 530.378 300.08 534.409C299.038 536.811 298.257 539.318 297.749 541.887C297.426 543.223 297.623 544.632 298.302 545.828C298.981 547.023 300.09 547.915 301.403 548.322C302.74 548.681 304.165 548.499 305.369 547.815C306.573 547.131 307.46 546.001 307.837 544.669L307.844 544.677Z" fill="#211715"/>
<path id="Vector_35" d="M287.067 543.448C288.296 534.566 289.822 525.685 291.805 516.94C293.678 509.301 296.42 501.901 299.977 494.886C300.642 493.68 300.818 492.264 300.468 490.932C300.119 489.6 299.271 488.453 298.1 487.728C296.899 487.04 295.476 486.852 294.138 487.203C292.799 487.554 291.652 488.416 290.942 489.605C287.048 497.225 284.001 505.249 281.857 513.533C279.749 522.47 278.234 531.584 276.979 540.667C276.656 542.003 276.854 543.412 277.533 544.607C278.211 545.803 279.319 546.695 280.632 547.103C281.97 547.462 283.394 547.28 284.599 546.596C285.803 545.913 286.689 544.782 287.067 543.45V543.448Z" fill="#211715"/>
<path id="Vector_36" d="M263.894 526.466C263.933 526.104 264.158 525.106 263.859 526.655C263.911 526.376 263.944 526.095 263.99 525.816C264.101 525.13 264.228 524.447 264.36 523.765C264.646 522.305 264.969 520.851 265.309 519.406C266.181 515.674 267.19 511.973 268.264 508.289C269.354 504.525 270.547 500.782 271.839 497.079C272.425 495.396 273.036 493.72 273.685 492.065C273.964 491.349 274.255 490.636 274.557 489.927C274.086 491.054 274.638 489.759 274.703 489.613C274.862 489.254 275.028 488.894 275.196 488.536C275.857 487.33 276.031 485.915 275.682 484.584C275.333 483.253 274.488 482.105 273.319 481.378C272.118 480.69 270.695 480.501 269.356 480.852C268.017 481.203 266.869 482.066 266.161 483.255C262.946 490.463 260.28 497.904 258.188 505.514C256.005 512.35 254.418 519.361 253.442 526.47C253.45 527.855 254.004 529.181 254.983 530.16C255.963 531.14 257.289 531.693 258.674 531.701C260.051 531.67 261.363 531.109 262.338 530.134C263.312 529.16 263.873 527.848 263.905 526.47L263.894 526.466Z" fill="#211715"/>
<path id="Vector_37" d="M202.836 261.046C203.443 260.726 204.057 260.42 204.678 260.126C205.783 259.605 203.525 260.536 204.791 260.089C205.24 259.93 205.689 259.769 206.147 259.629C207.372 259.217 208.636 258.932 209.92 258.779C209.889 258.705 208.789 258.905 209.981 258.779C210.351 258.74 210.724 258.705 211.095 258.679C211.995 258.611 212.895 258.578 213.798 258.574C214.639 258.574 215.478 258.587 216.317 258.637C216.703 258.659 217.091 258.687 217.477 258.722C217.695 258.744 219.138 258.772 217.8 258.74C219.074 258.853 220.329 259.135 221.529 259.579C222.046 259.74 222.549 259.987 223.068 260.13C222.948 260.098 221.941 259.594 222.545 259.912C222.763 260.028 222.981 260.13 223.199 260.235C223.515 260.401 223.822 260.575 224.123 260.765C224.559 261.039 225.69 261.92 224.044 260.636C225.043 261.583 226.367 262.111 227.743 262.111C229.12 262.111 230.444 261.583 231.442 260.636C233.164 258.759 233.746 255.034 231.442 253.238C226.468 249.668 220.443 247.862 214.325 248.105C208.498 247.981 202.733 249.322 197.559 252.004C196.369 252.713 195.506 253.86 195.155 255.199C194.803 256.538 194.993 257.962 195.682 259.163C196.403 260.338 197.55 261.189 198.884 261.539C200.218 261.888 201.635 261.709 202.84 261.039L202.836 261.046Z" fill="#211715"/>
<path id="Vector_38" d="M211.679 211.579C212.588 214.848 213.315 218.165 213.859 221.514L213.671 220.124C213.736 220.579 213.748 221.039 213.708 221.497L213.896 220.106C213.864 220.316 213.813 220.523 213.743 220.723L214.271 219.472C214.21 219.611 214.137 219.743 214.053 219.869L214.87 218.812C214.773 218.929 214.664 219.036 214.545 219.13L215.605 218.312C215.352 218.469 215.089 218.608 214.818 218.729L216.067 218.201C215.641 218.383 215.196 218.514 214.739 218.589L216.13 218.402C215.716 218.451 215.299 218.451 214.885 218.402L216.276 218.589C215.807 218.524 215.345 218.408 214.877 218.345C214.202 218.128 213.481 218.096 212.791 218.254C212.098 218.283 211.426 218.497 210.844 218.873C210.251 219.219 209.731 219.68 209.316 220.227C208.9 220.774 208.597 221.398 208.423 222.063C208.248 222.728 208.207 223.42 208.3 224.101C208.394 224.782 208.62 225.438 208.967 226.031C209.3 226.621 209.748 227.138 210.286 227.55C210.823 227.962 211.439 228.261 212.095 228.429C213.185 228.575 214.225 228.849 215.323 228.897C216.983 228.907 218.62 228.517 220.097 227.759C221.034 227.333 221.864 226.702 222.526 225.913C223.188 225.125 223.666 224.198 223.925 223.202C224.263 221.585 224.247 219.915 223.877 218.306C223.336 215.106 222.595 211.932 221.773 208.794C221.59 208.131 221.279 207.511 220.856 206.968C220.433 206.426 219.908 205.972 219.31 205.633C218.712 205.293 218.053 205.075 217.371 204.991C216.688 204.906 215.996 204.956 215.333 205.139C214.67 205.322 214.05 205.634 213.508 206.057C212.965 206.479 212.512 207.005 212.172 207.603C211.833 208.201 211.615 208.86 211.53 209.542C211.445 210.224 211.496 210.917 211.679 211.579Z" fill="#211715"/>
<path id="Vector_39" d="M159.268 183.4C157.609 188.793 158.69 201.2 168.906 202.255C182.41 202.174 183.129 187.175 178.582 180.124C174.861 174.35 163.917 171.948 159.268 183.4Z" fill="#211715"/>
<path id="Vector_40" d="M267.399 183.402C269.06 188.795 267.979 201.2 257.763 202.255C244.248 202.174 243.54 187.175 248.085 180.124C251.805 174.35 262.75 171.95 267.399 183.402Z" fill="#211715"/>
</g>
</svg>
