<svg width="688" height="801" viewBox="0 0 688 801" fill="none" xmlns="http://www.w3.org/2000/svg">
<g id="Group 1">
<path id="Vector" d="M322.416 65.3091C322.435 65.3946 322.483 65.4711 322.551 65.526C322.619 65.5808 322.704 65.6107 322.792 65.6107C322.879 65.6107 322.964 65.5808 323.032 65.526C323.101 65.4711 323.148 65.3946 323.167 65.3091C324.642 59.0855 327.705 48.8307 332.387 44.4127C337.764 39.8744 344.306 36.9341 351.27 35.9251C351.361 35.9079 351.443 35.859 351.501 35.787C351.559 35.715 351.589 35.6247 351.587 35.5322C351.585 35.4398 351.549 35.3512 351.487 35.2824C351.426 35.2136 351.341 35.1691 351.25 35.1568C342.916 33.953 336.011 31.4534 330.781 24.9122C326.478 19.3207 323.985 12.5484 323.636 5.50134C323.644 5.39945 323.611 5.2985 323.545 5.22069C323.478 5.14288 323.384 5.09458 323.282 5.08643C323.18 5.07828 323.079 5.11094 323.001 5.17722C322.924 5.2435 322.875 5.33798 322.867 5.43987C321.285 12.5015 318.488 19.2349 314.602 25.3399C309.849 31.3765 303.589 33.2257 293.732 35.103C293.643 35.1241 293.565 35.1752 293.51 35.2475C293.455 35.3199 293.427 35.4091 293.431 35.4998C293.435 35.5905 293.47 35.6772 293.53 35.7449C293.591 35.8127 293.673 35.8574 293.762 35.8713C301.443 36.4724 308.668 39.7552 314.172 45.1452C319.02 49.5632 321.366 61.0371 322.416 65.3091Z" fill="white"/>
<path id="Vector_2" d="M651.077 483.914C651.098 484.006 651.149 484.087 651.222 484.145C651.295 484.204 651.386 484.235 651.479 484.235C651.573 484.235 651.663 484.204 651.737 484.145C651.81 484.087 651.861 484.006 651.881 483.914C653.459 477.256 656.732 466.296 661.737 461.571C667.487 456.718 674.482 453.573 681.929 452.494C682.028 452.478 682.118 452.427 682.182 452.349C682.246 452.272 682.28 452.174 682.277 452.073C682.274 451.973 682.235 451.877 682.167 451.803C682.098 451.729 682.006 451.683 681.906 451.672C672.995 450.392 665.614 447.71 660.021 440.729C655.421 434.753 652.755 427.515 652.381 419.983C652.375 419.884 652.333 419.79 652.264 419.719C652.194 419.648 652.101 419.604 652.001 419.596C651.902 419.589 651.803 419.617 651.723 419.676C651.643 419.736 651.588 419.822 651.566 419.919C649.958 426.87 646.114 436.897 642.728 441.2C637.647 447.654 630.947 449.629 620.41 451.639C620.31 451.656 620.22 451.71 620.156 451.789C620.093 451.868 620.06 451.967 620.064 452.068C620.069 452.17 620.11 452.266 620.18 452.339C620.25 452.412 620.345 452.458 620.446 452.466C628.659 453.111 636.383 456.622 642.269 462.386C647.453 467.085 649.955 479.356 651.077 483.914Z" fill="white"/>
<path id="Vector_3" d="M29.4503 357.824C29.4673 357.895 29.5078 357.959 29.5652 358.004C29.6225 358.049 29.6935 358.074 29.7666 358.074C29.8397 358.074 29.9106 358.049 29.968 358.004C30.0254 357.959 30.0658 357.895 30.0829 357.824C31.3225 352.595 33.8939 343.976 37.8278 340.26C42.3497 336.445 47.851 333.973 53.7068 333.127C53.784 333.113 53.8536 333.072 53.9031 333.011C53.9525 332.951 53.9785 332.874 53.9763 332.796C53.9742 332.717 53.944 332.642 53.8912 332.584C53.8385 332.526 53.7667 332.489 53.6889 332.479C46.6842 331.455 40.8832 329.365 36.4832 323.877C32.8671 319.176 30.7718 313.483 30.4773 307.56C30.4732 307.481 30.4409 307.407 30.3864 307.351C30.3319 307.295 30.2588 307.261 30.1809 307.255C30.1029 307.248 30.0253 307.271 29.9625 307.317C29.8997 307.364 29.8561 307.432 29.8396 307.508C28.506 313.446 26.1524 319.107 22.8835 324.24C18.8881 329.314 13.6276 330.866 5.33971 332.436C5.26045 332.449 5.18866 332.49 5.13796 332.552C5.08725 332.615 5.06116 332.693 5.06464 332.774C5.06811 332.854 5.10091 332.93 5.1568 332.988C5.2127 333.045 5.28781 333.08 5.36788 333.086C11.8288 333.59 17.9063 336.352 22.5352 340.888C26.5946 344.594 28.5641 354.239 29.4503 357.824Z" fill="white"/>
<path id="Vector_4" d="M647.453 487.538L647.858 487.856C648.844 488.767 650.137 489.273 651.479 489.273C652.822 489.273 654.115 488.767 655.101 487.856C656.506 486.323 657.373 484.374 657.57 482.303C658.1 480.324 658.686 478.357 659.347 476.413C660.391 472.837 662.027 469.461 664.185 466.424C666.627 463.742 669.66 461.665 673.044 460.357C675.117 459.446 677.267 458.719 679.467 458.185C681.757 457.612 684.257 457.637 685.896 455.691C686.82 454.711 687.334 453.415 687.334 452.068C687.334 450.721 686.82 449.425 685.896 448.445C684.226 446.99 682.095 446.173 679.88 446.14C677.888 445.754 675.926 445.23 674.007 444.57C670.679 443.406 667.675 441.47 665.24 438.92C662.461 435.968 660.399 432.415 659.214 428.537C658.051 424.778 658.446 418.767 655.628 415.952C654.824 415.158 653.781 414.649 652.659 414.504C651.538 414.36 650.4 414.587 649.42 415.15C645.689 417.942 645.205 424.114 643.599 428.34C642.436 431.863 640.745 435.188 638.584 438.203C636.408 440.821 633.55 442.784 630.327 443.876C628.315 444.581 626.263 445.162 624.18 445.615C621.593 446.212 618.233 446.207 616.451 448.432C615.523 449.411 615.006 450.707 615.006 452.055C615.006 453.403 615.523 454.7 616.451 455.678C618.382 457.676 620.743 457.484 623.266 457.983C625.334 458.366 627.358 458.96 629.305 459.755C633.122 461.321 636.554 463.695 639.365 466.714C643.586 471.58 644.674 479.212 646.15 485.282C647.704 491.685 657.585 488.975 656.028 482.56C654.148 474.825 652.381 466.202 647.064 459.993C640.113 452.563 630.607 448.039 620.456 447.334L624.078 448.835L623.696 448.438V455.683L624.042 455.25L621.783 456.567C630.46 454.892 639.455 452.663 645.555 445.774C651.379 439.189 654.501 429.675 656.517 421.272L654.163 424.332L654.591 424.012L648.383 423.21L648.767 423.595L647.269 419.973C648.339 429.572 650.972 438.582 657.68 445.841C663.848 451.943 671.922 455.747 680.556 456.618L678.294 455.301L678.663 455.714V448.455L678.318 448.868L680.579 447.551C672.094 448.909 662.195 452.745 656.627 459.589C651.39 466.038 648.869 474.582 646.954 482.539L648.27 480.278L647.871 480.6H655.114L654.709 480.28C653.729 479.357 652.434 478.843 651.087 478.843C649.741 478.843 648.446 479.357 647.466 480.28C646.508 481.244 645.969 482.548 645.967 483.907C645.965 485.266 646.499 486.571 647.453 487.538Z" fill="#211715"/>
<path id="Vector_5" d="M25.8237 361.446L26.1413 361.702C27.1278 362.613 28.4213 363.119 29.7641 363.119C31.1068 363.119 32.4003 362.613 33.3868 361.702C35.7072 359.837 36.0709 354.964 37.0057 352.226C37.7958 349.506 39.0448 346.941 40.6988 344.642C42.5568 342.738 44.7952 341.247 47.2682 340.265C48.8156 339.598 50.417 339.063 52.0549 338.667C54.0603 338.155 56.1528 338.142 57.5921 336.424C58.5176 335.445 59.0332 334.149 59.0332 332.802C59.0332 331.455 58.5176 330.159 57.5921 329.181C55.3767 326.712 50.7846 326.945 47.765 325.851C45.3359 324.981 43.1435 323.556 41.3622 321.689C39.3056 319.505 37.7806 316.876 36.9058 314.006C35.9146 310.802 36.2117 306.046 33.794 303.631C32.9898 302.837 31.9473 302.328 30.8264 302.183C29.7055 302.039 28.568 302.265 27.5884 302.829C25.8115 304.218 24.6331 306.234 24.2947 308.464C23.7825 310.282 23.1849 312.075 22.5019 313.842C21.6083 316.416 20.3776 318.86 18.8421 321.11C17.2765 323.045 15.1937 324.494 12.8362 325.29C11.2538 325.841 9.63997 326.297 8.00333 326.655C5.75465 327.168 3.00143 327.211 1.44426 329.145C0.516908 330.123 0 331.42 0 332.768C0 334.115 0.516908 335.412 1.44426 336.39C3.8338 338.862 8.61545 338.439 11.7708 339.763C14.6801 340.961 17.2998 342.767 19.4542 345.06C20.8546 347.078 21.8968 349.323 22.5352 351.696C23.3036 354.162 23.8901 356.677 24.4996 359.187C26.0542 365.59 35.9351 362.878 34.3779 356.462C32.8541 350.19 31.384 343.259 27.0505 338.242C21.3798 332.207 13.6376 328.537 5.37561 327.969L8.99706 329.47L8.6974 329.158V336.403L8.96888 336.062L6.70996 337.379C13.7224 336.027 20.9525 334.167 25.8801 328.612C30.5977 323.298 33.1486 315.668 34.7775 308.868L32.4238 311.942L32.7619 311.686L26.5537 310.884L26.8559 311.186L25.3525 307.557C25.798 315.334 28.7875 322.749 33.8606 328.661C38.8361 333.6 45.3508 336.69 52.3238 337.417L50.0649 336.098L50.3543 336.421V329.178L50.0829 329.501L52.3418 328.184C45.4882 329.283 37.541 332.428 33.0333 337.937C29.0645 343.452 26.3702 349.779 25.145 356.462L26.4615 354.2L26.1464 354.457H33.3919L33.0743 354.2C32.0938 353.278 30.7981 352.764 29.4516 352.764C28.1051 352.764 26.8094 353.278 25.8289 354.2C24.8758 355.165 24.3409 356.466 24.34 357.822C24.339 359.178 24.8721 360.48 25.8237 361.446Z" fill="#211715"/>
<path id="Vector_6" d="M432.807 188.756L436.802 171.315C434.735 172.808 433.073 174.001 433.073 174.001C427.201 180.275 420.785 186.017 413.9 191.161L411.982 196.106C404.014 213.949 394.055 230.833 382.293 246.438C382.293 246.438 372.907 246.784 362.48 247.142C362.57 257.899 362.532 271.445 362.393 286.712L339.586 282.97C320.363 277.492 301.822 269.857 284.314 260.212C271.158 252.532 258.489 244.047 246.379 234.805C236.288 236.726 230.036 238.068 218.068 240.35C263.316 276.544 308.113 308.184 361.748 335.473C360.688 398.411 358.795 469.569 357.619 498.692C357.604 499.087 357.589 499.461 357.573 499.85H406.939C402.552 470.235 395.337 335.747 393.058 300.355L393.314 299.827C411.316 262.809 422.933 227.012 432.807 188.756Z" fill="white"/>
<path id="Vector_7" d="M385.059 793.769C400.854 793.769 416.28 793.789 422.608 793.828C426.962 793.856 431.385 793.884 435.801 793.802C451.037 793.546 466.301 792.329 479.412 786.887C504.98 776.309 514.738 753.413 521.499 732.616C544.725 661.284 558.148 587.125 561.399 512.177C561.453 510.95 561.506 509.669 561.56 508.417C560.024 499.476 557.009 492.307 549.131 486.611C541.704 481.269 532.668 478.733 523.776 476.526C476.938 464.798 427.687 461.558 379.696 461.036C363.095 461.33 346.658 461.855 330.384 463.033C300.7 464.961 271.241 469.475 242.342 476.526C233.455 478.733 224.432 481.269 216.987 486.611C209.048 492.335 206.056 499.583 204.558 508.581C207.12 574.502 217.579 639.877 235.712 703.307C238.529 713.118 241.464 722.851 244.627 732.609C251.358 753.405 261.116 776.302 286.658 786.879C303.561 793.884 324.027 793.938 343.49 793.828C350.361 793.787 367.923 793.766 385.059 793.769Z" fill="white"/>
<path id="Vector_8" d="M442.639 196.457C440.198 188.123 438.383 179.617 437.209 171.012C434.953 172.641 433.073 173.991 433.073 173.991C418.259 189.186 412.312 192.536 397.747 201.72C391.685 205.544 383.661 207.573 378.075 205.444C372.251 203.226 367.408 197.825 363.94 192.201C360.272 186.275 357.84 179.669 356.792 172.78C356.141 168.77 356.354 164.668 357.42 160.749C358.485 156.829 360.376 153.183 362.967 150.055C368.74 143.718 377.14 141.493 385.492 140.85C391.608 140.74 397.724 141.05 403.797 141.78L418.08 121.185C425.032 113.094 432.712 105.658 441.023 98.9701C448.348 93.3868 456.41 89.0995 464.073 90.1931C471.398 91.238 477.007 97.7203 479.268 104.766C481.53 111.812 481.097 119.403 480.639 126.792C480.188 134.065 476.84 148.049 472.904 154.196L470.986 157.925C473.442 159.684 475.824 161.58 478.141 163.559C482.823 167.237 487.298 171.17 491.546 175.341C496.579 180.637 500.72 186.989 500.754 194.467C500.603 198.008 499.696 201.475 498.095 204.636C496.494 207.797 494.235 210.579 491.47 212.795C486.551 216.378 480.949 218.916 475.012 220.25C469.477 221.866 463.658 223.475 458.592 221.508C453.08 218.77 448.824 214.028 446.693 208.254C445.208 204.504 443.858 200.555 442.647 196.473" fill="#6DBF6B"/>
<path id="Vector_9" d="M422.426 125.532C428.647 118.158 435.523 111.363 442.969 105.23C449.019 100.235 460.303 92.032 468.207 98.6295C476.367 105.44 475.26 118.309 474.41 127.765C473.836 135.933 471.51 143.882 467.59 151.071C463.423 157.823 474.054 164.005 478.203 157.277C482.214 150.03 484.821 142.09 485.886 133.876C487.528 124.031 488.304 112.734 485.185 103.124C482.065 93.5149 474.448 85.1963 464.06 84.0387C453.247 82.8221 443.243 89.3018 435.201 95.7712C427.381 102.082 420.19 109.135 413.729 116.831C412.615 118.005 411.995 119.56 411.995 121.178C411.995 122.795 412.615 124.351 413.729 125.524C414.888 126.664 416.449 127.303 418.075 127.303C419.701 127.303 421.262 126.664 422.421 125.524L422.426 125.532Z" fill="#211715"/>
<path id="Vector_10" d="M387.6 249.532C399.181 233.806 409.129 216.942 417.291 199.2C418.066 197.782 418.27 196.121 417.86 194.558C417.45 192.995 416.457 191.647 415.086 190.792C413.675 189.982 412.003 189.759 410.429 190.171C408.855 190.584 407.507 191.599 406.675 192.997C398.519 210.739 388.575 227.602 376.997 243.326C376.187 244.737 375.964 246.41 376.376 247.983C376.789 249.557 377.804 250.905 379.202 251.737C380.618 252.523 382.283 252.732 383.85 252.322C385.417 251.911 386.764 250.912 387.613 249.532H387.6Z" fill="#211715"/>
<path id="Vector_11" d="M244.612 536.264C264.565 542.839 285.864 545.484 306.648 547.984C318.956 549.469 331.303 550.552 343.687 551.231C379.817 553.177 416.049 551.876 451.946 547.344C474.346 544.511 497.944 542.362 519.107 534.044C520.652 533.569 521.957 532.522 522.755 531.116C523.553 529.711 523.784 528.053 523.399 526.483C522.956 524.918 521.914 523.59 520.499 522.786C519.085 521.983 517.41 521.769 515.839 522.191C497.288 529.482 476.968 531.693 457.353 534.346C437.888 536.977 418.338 538.651 398.703 539.368C370.463 540.487 342.18 539.545 314.077 536.551C291.924 534.154 269.122 531.429 247.885 524.421C240.352 521.94 237.128 533.805 244.617 536.274L244.612 536.264Z" fill="#211715"/>
<path id="Vector_12" d="M403.282 467.679C444.311 469.034 485.538 472.855 525.356 483.266C533.687 485.443 542.723 488.133 548.893 494.487C551.159 496.854 552.865 499.699 553.884 502.813C554.512 504.55 554.981 506.34 555.288 508.161C555.426 510.108 555.389 512.064 555.178 514.005C554.275 534.513 552.589 554.967 550.12 575.368C545.107 616.284 537.024 656.765 525.937 696.469C523.11 706.641 520.098 716.759 516.902 726.821C514.857 733.688 512.415 740.431 509.587 747.015C503.568 760.333 494.878 772.073 481.737 779.029C464.772 787.993 444.275 787.794 425.589 787.704C415.092 787.654 404.591 787.63 394.087 787.63C381.376 787.63 368.664 787.636 355.952 787.648C342.206 787.673 328.397 788.124 314.689 786.93C297.983 785.476 281.728 780.548 269.957 768.068C260.419 757.956 255.069 744.761 250.812 731.751C237.926 692.266 228.014 651.871 221.159 610.906C217.744 590.588 215.129 570.166 213.314 549.641C212.391 539.243 211.667 528.827 211.143 518.395C210.587 514.033 210.718 509.611 211.532 505.29C212.31 502.01 213.733 498.918 215.717 496.193C220.742 489.603 229.386 486.501 237.051 484.291C246.76 481.492 256.705 479.363 266.617 477.424C287.081 473.503 307.759 470.797 328.543 469.321C338.631 468.553 348.732 468.066 358.843 467.713C366.732 467.436 366.768 455.143 358.843 455.419C337.046 456.188 315.291 457.745 293.668 460.634C282.693 462.101 271.762 463.871 260.906 466.053C250.498 467.941 240.213 470.446 230.103 473.555C221.356 476.436 212.462 480.693 206.597 488.033C201.022 495.078 198.183 503.902 198.603 512.876C199.541 534.56 201.349 556.191 204.028 577.77C209.381 621.169 218.116 664.083 230.151 706.121C239.287 737.982 248.443 776.368 281.722 791.392C300.15 799.708 320.777 800.079 340.652 800.003C351.75 799.958 362.848 799.933 373.947 799.928C387.024 799.928 400.103 799.937 413.183 799.954C429.408 799.992 445.689 800.451 461.781 797.977C479.645 795.229 496.453 787.361 508.007 773.152C518.121 760.715 523.76 745.809 528.573 730.696C541.765 689.376 551.75 647.1 558.438 604.244C561.768 582.796 564.269 561.238 565.942 539.571C566.357 534.107 566.717 528.633 567.021 523.149C567.277 518.308 567.917 513.273 567.717 508.43C567.052 499.617 563.216 491.343 556.919 485.141C549.779 478.247 540.175 474.582 530.763 471.995C520.518 469.178 510.107 466.96 499.673 465.023C478.346 461.152 456.819 458.481 435.194 457.022C424.57 456.254 413.936 455.742 403.287 455.399C395.376 455.143 395.383 467.436 403.287 467.692L403.282 467.679Z" fill="#211715"/>
<path id="Vector_13" d="M363.712 499.85C365.113 465.769 365.869 431.657 366.645 397.558C367.595 356.003 368.438 314.439 368.64 272.874C368.717 258.258 368.896 243.593 368.225 228.984C367.861 221.108 355.565 221.062 355.932 228.984C357.394 260.673 356.267 292.595 355.775 324.291C355.123 366.508 354.2 408.719 353.007 450.924C352.551 467.234 352.09 483.546 351.419 499.842C351.094 507.751 363.387 507.738 363.712 499.842V499.85Z" fill="#211715"/>
<path id="Vector_14" d="M412.853 498.226C412.799 497.85 412.75 497.473 412.691 497.099C412.574 496.331 412.891 498.705 412.707 497.197C412.579 496.159 412.451 495.122 412.328 494.085C412.058 491.749 411.81 489.412 411.585 487.075C411.017 481.328 410.525 475.57 410.048 469.813C408.819 454.689 407.769 439.55 406.765 424.409C404.629 392.251 402.747 360.076 400.849 327.903C400.216 317.215 399.632 306.52 398.882 295.837C398.844 294.219 398.184 292.677 397.04 291.533C395.895 290.388 394.353 289.728 392.735 289.69C391.109 289.703 389.553 290.355 388.403 291.505C387.253 292.655 386.601 294.211 386.588 295.837C388.276 319.82 389.48 343.838 390.922 367.836C392.884 400.442 394.851 433.055 397.419 465.62C398.362 477.591 399.246 489.61 401.005 501.494C401.447 503.06 402.489 504.389 403.904 505.193C405.319 505.996 406.994 506.21 408.565 505.787C410.115 505.319 411.426 504.273 412.225 502.865C413.024 501.458 413.251 499.796 412.858 498.226H412.853Z" fill="#211715"/>
<path id="Vector_15" d="M473.731 392.11C451.952 407.938 428.056 420.626 402.744 429.8C401.195 430.268 399.885 431.314 399.086 432.722C398.286 434.129 398.059 435.79 398.452 437.361C398.897 438.925 399.939 440.251 401.353 441.054C402.768 441.857 404.441 442.072 406.012 441.653C419.319 437.004 432.273 431.401 444.772 424.885C456.974 418.292 468.721 410.889 479.934 402.726C481.308 401.873 482.302 400.525 482.713 398.96C483.123 397.396 482.918 395.733 482.139 394.316C481.308 392.918 479.96 391.903 478.387 391.491C476.814 391.078 475.142 391.301 473.731 392.11Z" fill="#211715"/>
<path id="Vector_16" d="M327.879 422.506C291.901 413.324 259.558 393.363 230.436 370.797C229.258 369.692 227.704 369.078 226.089 369.078C224.475 369.078 222.921 369.692 221.743 370.797C220.596 371.956 219.953 373.52 219.953 375.151C219.953 376.781 220.596 378.345 221.743 379.504C252.574 403.379 286.473 424.637 324.611 434.369C332.295 436.326 335.553 424.473 327.879 422.514V422.506Z" fill="#211715"/>
<path id="Vector_17" d="M237.09 364.522C240.95 362.424 244.402 359.648 247.278 356.326C248.059 355.506 248.587 354.478 248.799 353.366C248.777 352.461 248.555 351.572 248.15 350.762C247.744 349.953 247.165 349.243 246.453 348.684C239.794 342.086 230.738 338.531 221.715 336.014C205.81 331.575 185.506 327.746 169.15 331.483C159.26 333.87 150.364 339.292 143.71 346.988C136.734 354.751 128.999 364.66 127.025 375.12C126.493 377.22 126.421 379.411 126.814 381.542C127.206 383.673 128.054 385.694 129.299 387.467C131.53 389.86 134.435 391.517 137.63 392.221C147.349 394.501 157.495 394.205 167.065 391.363C177.359 388.753 187.595 385.2 197.635 381.753C207.558 378.412 217.253 374.429 226.658 369.829C228.502 368.919 233.573 366.55 237.09 364.522Z" fill="#6DBF6B"/>
<path id="Vector_18" d="M240.194 369.828C244.995 367.214 249.222 363.663 252.625 359.384C256.375 354.305 254.987 348.653 250.802 344.343C243.531 336.862 233.189 332.856 223.349 330.092C203.838 324.609 180.253 319.904 160.724 327.693C151.33 331.632 143.059 337.839 136.649 345.756C129.86 353.729 123.075 362.965 121.108 373.491C119.887 378.692 120.521 384.157 122.901 388.94C124.373 391.262 126.288 393.272 128.536 394.854C130.785 396.436 133.323 397.559 136.007 398.16C147.301 401.372 159.333 399.786 170.49 396.841C183.324 393.362 195.968 389.213 208.369 384.412C219.335 380.368 229.978 375.496 240.204 369.836C247.083 365.933 240.895 355.309 233.998 359.223C218.375 368.092 201.349 374.17 184.348 379.804C175.323 383.164 165.997 385.651 156.498 387.231C151.934 387.884 147.297 387.844 142.745 387.114C139.73 386.571 135.1 385.805 133.525 382.742C131.96 379.725 133.03 375.763 134.009 372.753C135.52 368.503 137.647 364.497 140.322 360.864C144.69 354.188 150.221 348.351 156.652 343.631C170.71 334.088 188.492 335.179 204.476 338.232C213.731 339.673 222.774 342.248 231.401 345.897C233.598 346.917 235.715 348.099 237.735 349.434C238.447 349.908 239.138 350.4 239.804 350.938C240.347 351.375 242.15 353.645 242.742 353.691C243.334 353.737 242.898 351.97 242.932 351.975C241.86 352.96 240.848 354.009 239.902 355.115C238.069 356.671 236.089 358.043 233.988 359.213C227.17 363.231 233.358 373.862 240.194 369.828Z" fill="#211715"/>
<path id="Vector_19" d="M593.088 196.183C600.308 197.894 607.1 200.727 610.327 206.054C613.418 211.156 612.245 217.961 609.01 222.97C605.459 227.778 601.043 231.882 595.99 235.074C591.228 238.509 586.186 242.053 580.367 242.735C574.229 243.164 568.121 241.559 562.987 238.168C549.081 228.629 537.17 216.47 527.92 202.371C527.112 201.404 526.719 200.156 526.826 198.901C527.164 197.392 528.793 196.596 530.248 196.083C544.529 190.92 560.024 191.105 574.863 193.299C579.76 194.006 586.595 194.647 593.088 196.183Z" fill="#6DBF6B"/>
<path id="Vector_20" d="M591.454 202.105C595.944 203.203 601.54 204.604 604.559 208.438C607.579 212.272 605.453 217.776 602.802 221.144C598.644 225.826 593.756 229.804 588.327 232.925C586.236 234.513 583.821 235.62 581.253 236.168C578.686 236.716 576.029 236.692 573.472 236.096C567.949 234.305 562.889 231.316 558.653 227.345C553.793 223.36 549.225 219.03 544.985 214.39C542.749 211.95 540.579 209.429 538.551 206.809C536.694 204.412 535.221 201.523 533.224 199.264L532.968 198.86C532.206 197.395 531.844 198.445 531.882 202.01C531.323 201.784 557.421 196.375 532.973 201.61C534.466 201.29 535.939 200.66 537.419 200.268C540.612 199.413 543.865 198.803 547.151 198.442C554.848 197.723 562.601 197.851 570.271 198.824C577.388 199.536 584.461 200.633 591.459 202.11C599.16 203.867 602.449 192.016 594.727 190.254C586.271 188.479 577.72 187.197 569.116 186.413C560.507 185.424 551.809 185.504 543.22 186.651C539.397 187.159 535.619 187.963 531.92 189.056C527.646 190.336 522.751 191.914 521.163 196.578C519.663 200.965 521.968 204.63 524.388 208.146C526.744 211.568 529.28 214.88 531.925 218.084C537.11 224.355 542.863 230.135 549.111 235.348C555.303 240.514 561.796 245.695 569.72 247.829C573.735 248.93 577.938 249.171 582.052 248.536C586.167 247.901 590.101 246.404 593.598 244.143C600.595 240.193 606.87 235.084 612.156 229.032C617.903 221.81 620.679 211.361 615.644 202.957C611.241 195.604 602.667 192.201 594.73 190.262C587.038 188.367 583.76 200.22 591.454 202.105Z" fill="#211715"/>
<path id="Vector_21" d="M448.568 194.823C444.491 181.007 442.203 166.725 441.758 152.326C441.758 152.009 441.855 150.882 441.699 150.72C441.187 150.208 439.993 152.203 439.804 151.893C439.996 152.209 442.59 152.091 443.092 152.15C446.356 152.651 449.557 153.496 452.643 154.67C458.391 156.949 463.791 160.022 468.686 163.8C473.654 167.46 478.485 171.568 483.069 175.697C487.65 179.299 491.28 183.968 493.641 189.296C494.519 191.893 494.721 194.669 494.228 197.365C493.735 200.061 492.564 202.587 490.824 204.704C487.047 209.064 481.987 212.117 476.369 213.427C470.735 215.169 463.405 218.391 458.206 214.168C452.504 209.537 450.591 201.531 448.581 194.823C446.312 187.263 434.443 190.469 436.725 198.091C439.215 206.392 441.891 215.069 448.043 221.454C454.684 228.351 463.154 229.547 472.182 227.393C480.518 225.406 489.136 222.673 495.821 217.133C498.96 214.51 501.549 211.291 503.439 207.662C505.329 204.034 506.483 200.067 506.834 195.991C508.163 178.985 492.417 167.376 480.826 157.805C474.491 152.365 467.415 147.852 459.811 144.402C456.153 142.77 452.335 141.522 448.419 140.678C444.49 139.517 440.334 139.341 436.321 140.166C431.162 141.813 429.405 146.792 429.449 151.74C429.546 156.951 429.928 162.153 430.594 167.322C431.775 177.733 433.823 188.028 436.718 198.099C438.928 205.677 450.804 202.453 448.573 194.831L448.568 194.823Z" fill="#211715"/>
<path id="Vector_22" d="M414.646 136.575C400.928 135.482 386.473 132.559 373.027 136.906C366.338 138.967 360.502 143.15 356.402 148.824C352.302 154.497 350.16 161.351 350.302 168.349C350.468 175.337 352.023 182.222 354.875 188.603C357.727 194.984 361.82 200.734 366.916 205.519C369.452 207.983 372.497 209.861 375.838 211.02C379.179 212.178 382.733 212.589 386.25 212.224C393.606 211.34 399.599 207.819 405.743 203.944C417.275 196.688 427.905 188.091 437.412 178.332C442.949 172.675 434.264 163.974 428.719 169.64C421.822 176.96 414.171 183.53 405.892 189.24C401.64 192.057 397.337 195.015 392.855 197.436C388.952 199.556 383.635 201.257 379.363 199.316C374.377 197.049 370.827 191.955 368.215 187.347C365.323 182.359 363.452 176.846 362.711 171.128C361.622 161.395 366.312 152.106 375.824 148.9C388.212 144.727 401.981 147.842 414.646 148.851C416.272 148.837 417.827 148.186 418.977 147.036C420.127 145.886 420.779 144.33 420.792 142.704C420.762 141.084 420.104 139.538 418.958 138.392C417.812 137.246 416.266 136.588 414.646 136.557V136.575Z" fill="#211715"/>
<path id="Vector_23" d="M331.409 438.103C325.006 441.858 318.144 444.506 312.128 442.885C306.368 441.335 302.514 435.609 301.387 429.751C300.633 423.822 300.987 417.803 302.432 412.003C303.5 406.23 304.691 400.183 308.435 395.66C312.575 391.11 318.098 388.05 324.15 386.952C340.794 384.234 357.807 384.788 374.239 388.584C375.49 388.726 376.636 389.355 377.427 390.336C377.708 391.057 377.809 391.836 377.719 392.604C377.63 393.373 377.354 394.108 376.915 394.746C370.164 408.345 358.838 418.923 346.599 427.595C342.539 430.458 337.161 434.728 331.409 438.103Z" fill="#6DBF6B"/>
<path id="Vector_24" d="M328.304 432.794C324.35 435.068 319.471 437.804 314.715 437.179C312.973 436.756 311.389 435.842 310.151 434.546C308.913 433.25 308.073 431.626 307.731 429.867C306.22 424.604 307.383 418.892 308.356 413.637C309.227 408.95 309.951 403.482 313.076 399.668C319.428 391.913 331.462 391.762 340.577 391.473C346.382 391.284 352.193 391.477 357.973 392.049C360.665 392.315 363.341 392.683 365.999 393.153C367.48 393.414 368.955 393.703 370.425 394.021C371.152 394.177 371.877 394.344 372.602 394.515C373.672 394.768 373.831 394.824 373.078 394.684L371.496 391.972C371.719 391.245 371.753 391.135 371.598 391.644C371.286 392.277 370.96 392.902 370.627 393.524C369.961 394.759 369.257 395.973 368.514 397.166C367.32 399.098 366.026 400.966 364.637 402.762C361.367 406.872 357.733 410.678 353.78 414.136C345.887 421.137 337.358 427.385 328.304 432.802C321.52 436.859 327.695 447.49 334.51 443.418C341.377 439.152 347.995 434.498 354.333 429.48C360.665 424.78 366.475 419.415 371.665 413.478C374.164 410.559 376.47 407.479 378.567 404.258C380.836 400.731 383.776 396.375 383.932 392.064C384.296 381.976 370.755 381.405 363.617 380.432C355.031 379.233 346.349 378.856 337.691 379.305C329.565 379.75 321.161 380.462 313.75 384.053C310.2 385.745 307.032 388.142 304.438 391.098C301.844 394.054 299.879 397.507 298.662 401.246C297.562 404.81 296.733 408.452 296.18 412.141C295.176 416.767 294.717 421.495 294.81 426.227C295.307 434.769 299.21 443.794 307.36 447.615C316.462 451.885 326.399 448.087 334.51 443.418C341.369 439.468 335.181 428.842 328.304 432.794Z" fill="#211715"/>
<path id="Vector_25" d="M471.011 260.509C491.782 267.969 515.928 259.518 528.447 241.667C529.256 240.256 529.478 238.583 529.066 237.01C528.654 235.437 527.639 234.088 526.242 233.256C524.827 232.466 523.161 232.255 521.594 232.666C520.027 233.077 518.679 234.078 517.834 235.461C512.93 242.018 506.059 246.835 498.223 249.208C490.386 251.582 481.997 251.387 474.279 248.653C472.708 248.236 471.035 248.452 469.621 249.255C468.207 250.058 467.165 251.385 466.719 252.948C466.319 254.519 466.542 256.184 467.342 257.593C468.143 259.002 469.457 260.047 471.011 260.509Z" fill="#211715"/>
<path id="Vector_26" d="M398.615 302.939C415.687 266.842 429.126 229.137 438.736 190.38C440.718 182.717 428.862 179.446 426.88 187.112C417.148 224.76 404.995 261.697 388.002 296.728C387.221 298.146 387.014 299.809 387.424 301.374C387.834 302.94 388.831 304.288 390.207 305.139C391.618 305.947 393.29 306.169 394.862 305.757C396.435 305.344 397.783 304.331 398.615 302.934V302.939Z" fill="#211715"/>
<path id="Vector_27" d="M341.22 277.033C322.58 271.503 304.553 264.086 287.418 254.897C280.455 251.143 274.239 261.754 281.213 265.513C299.285 275.207 318.296 283.04 337.952 288.889C345.543 291.173 348.788 279.31 341.22 277.033Z" fill="#211715"/>
<path id="Vector_28" d="M364.87 330.18C326.537 310.404 289.932 287.444 255.443 261.541C245.721 254.315 236.126 246.929 226.658 239.382C225.482 238.275 223.927 237.658 222.312 237.658C220.696 237.658 219.142 238.275 217.965 239.382C216.823 240.54 216.183 242.102 216.183 243.728C216.183 245.355 216.823 246.916 217.965 248.075C251.756 275.376 287.471 300.205 324.834 322.368C335.941 328.822 347.221 334.965 358.674 340.795C365.71 344.381 371.936 333.778 364.88 330.18H364.87Z" fill="#211715"/>
<path id="Vector_29" d="M357.788 123.931C357.459 121.202 357.992 118.438 359.313 116.027C360.634 113.616 362.676 111.679 365.154 110.488C368.961 109.214 372.904 108.39 376.902 108.034C380.924 107.304 384.803 105.931 388.389 103.969C395.304 100.174 400.065 93.9477 405.746 88.6718C408.962 85.6829 416.277 80.6093 420.754 84.1949C421.929 85.3038 423.484 85.9215 425.1 85.9215C426.716 85.9215 428.271 85.3038 429.446 84.1949C430.589 83.0366 431.229 81.4753 431.229 79.8487C431.229 78.222 430.589 76.6607 429.446 75.5024C421.853 69.4223 412.079 69.9601 403.876 74.7341C395.793 79.4286 391.07 88.1186 383.085 92.8516C374.91 97.6998 364.573 95.7738 356.644 101.242C352.965 103.723 350.001 107.124 348.045 111.106C346.089 115.089 345.21 119.514 345.495 123.941C345.535 125.559 346.196 127.099 347.34 128.243C348.484 129.387 350.024 130.048 351.642 130.088C353.268 130.075 354.824 129.424 355.974 128.274C357.124 127.124 357.776 125.568 357.788 123.941V123.931Z" fill="#211715"/>
<path id="Vector_30" d="M150.252 425.175C173.691 428.543 197.832 421.625 219.658 413.463C221.206 412.991 222.515 411.944 223.314 410.537C224.113 409.13 224.342 407.47 223.953 405.9C223.508 404.335 222.466 403.007 221.051 402.204C219.636 401.401 217.962 401.187 216.39 401.607C205.315 405.749 193.943 409.051 182.371 411.483C172.943 413.82 163.171 414.442 153.522 413.319C151.952 412.94 150.296 413.172 148.892 413.97C147.487 414.768 146.439 416.071 145.962 417.614C145.54 419.186 145.754 420.86 146.557 422.275C147.361 423.69 148.686 424.731 150.252 425.175Z" fill="#211715"/>
<path id="Vector_31" d="M318.792 68.9254L319.171 69.2251C320.158 70.1353 321.451 70.6407 322.793 70.6407C324.135 70.6407 325.428 70.1353 326.414 69.2251C329.011 67.1377 329.424 61.4443 330.471 58.3786C331.437 55.0631 332.955 51.9346 334.963 49.1252C337.221 46.6691 340.015 44.7679 343.128 43.5701C345.042 42.7324 347.025 42.064 349.055 41.5724C351.26 41.0218 353.634 41.032 355.202 39.1547C356.127 38.1753 356.642 36.8792 356.642 35.532C356.642 34.1848 356.127 32.8887 355.202 31.9093C352.766 29.1919 347.308 29.3763 343.933 28.1982C340.875 27.1273 338.115 25.3453 335.88 22.9991C333.32 20.2799 331.421 17.0075 330.33 13.4358C329.219 9.85017 329.562 4.21566 326.878 1.51879C326.074 0.729368 325.035 0.223915 323.917 0.0792257C322.8 -0.065463 321.666 0.158523 320.688 0.717149C317.087 3.41147 316.638 9.16891 315.092 13.2514C314.017 16.4903 312.463 19.5499 310.481 22.328C308.491 24.7383 305.869 26.5466 302.908 27.5502C301.026 28.2076 299.106 28.7498 297.158 29.174C294.674 29.7477 291.498 29.7553 289.785 31.8862C288.857 32.8637 288.34 34.16 288.34 35.5077C288.34 36.8553 288.857 38.1516 289.785 39.1291C291.642 41.0551 293.883 40.8912 296.303 41.3675C298.209 41.7191 300.075 42.2632 301.871 42.9913C305.419 44.4359 308.607 46.6387 311.214 49.4454C315.104 53.9709 316.106 61.0422 317.471 66.6639C319.025 73.0668 328.906 70.3571 327.349 63.9414C325.579 56.6499 323.902 48.5387 318.882 42.684C312.317 35.6753 303.343 31.4113 293.762 30.7491L297.384 32.2473L297.028 31.8785V39.1214L297.353 38.7193L295.092 40.0358C303.264 38.4581 311.739 36.3426 317.471 29.8552C322.959 23.6547 325.907 14.7138 327.808 6.80498L325.454 9.86554L325.853 9.56588L319.645 8.76681L320.006 9.12537L318.506 5.50392C319.53 14.5729 322.004 23.0708 328.34 29.9218C334.147 35.6732 341.749 39.2617 349.88 40.0895L347.618 38.7706L347.964 39.1573V31.9093L347.641 32.296L349.9 30.977C341.909 32.2576 332.605 35.8841 327.362 42.3305C322.419 48.403 320.035 56.4399 318.229 63.9389L319.545 61.6774L319.171 61.9796H326.414L326.038 61.6799C325.057 60.7578 323.761 60.2443 322.415 60.2443C321.069 60.2443 319.773 60.7578 318.792 61.6799C317.841 62.6455 317.307 63.9469 317.307 65.3027C317.307 66.6585 317.841 67.9598 318.792 68.9254Z" fill="#211715"/>
<path id="Vector_32" d="M292.874 103.26C278.147 103.923 83.9846 113.341 30.1956 116.373C31.553 160.904 34.2934 216.588 35.9351 249.895C89.7702 246.858 284.445 238.017 299.22 237.359C298.247 215.392 293.266 111.707 292.874 103.26Z" fill="#BD957A"/>
<path id="Vector_33" d="M161.807 138.214C141.964 139.254 129.153 157.39 130.211 177.771C131.437 201.364 145.196 215.599 165.777 214.521C186.837 213.42 198.56 197.851 197.338 174.257C196.273 153.738 181.582 137.18 161.807 138.214Z" fill="white"/>
<path id="Vector_34" d="M292.874 97.1133C266.12 98.3221 239.374 99.6744 212.626 100.991C169.238 103.115 125.852 105.274 82.4659 107.468C65.0501 108.359 47.6164 109.245 30.1981 110.226C28.5755 110.251 27.0263 110.906 25.8788 112.054C24.7313 113.201 24.0758 114.75 24.0514 116.373C25.1604 152.547 26.8251 188.702 28.5692 224.848C28.9722 233.197 29.3794 241.546 29.7909 249.895C29.8115 251.519 30.4657 253.071 31.614 254.219C32.7623 255.367 34.3138 256.022 35.9376 256.042C72.1931 253.993 108.474 252.357 144.745 250.641C185.508 248.715 226.273 246.823 267.039 244.965C277.766 244.475 288.492 243.989 299.218 243.505C300.841 243.484 302.392 242.829 303.54 241.681C304.688 240.533 305.342 238.982 305.364 237.359C303.648 198.547 301.717 159.756 299.863 120.945C299.581 115.049 299.301 109.154 299.023 103.26C298.654 95.382 286.358 95.3384 286.73 103.26C288.437 139.739 290.171 176.216 291.931 212.69C292.319 220.911 292.699 229.134 293.071 237.359L299.218 231.212C272.254 232.407 245.293 233.64 218.334 234.91C174.938 236.915 131.543 238.964 88.149 241.057C70.7333 241.91 53.338 242.758 35.9376 243.738L42.0844 249.885C40.4017 215.666 38.7549 181.446 37.4231 147.212C37.027 136.931 36.6676 126.648 36.3449 116.363L30.1981 122.51C66.2334 120.479 102.287 118.734 138.335 116.939C179.11 114.909 219.889 112.908 260.672 110.936C271.406 110.424 282.14 109.881 292.876 109.399C300.752 109.051 300.795 96.7547 292.874 97.1133Z" fill="#211715"/>
<path id="Vector_35" d="M161.807 132.068C152.826 132.738 144.327 136.39 137.659 142.445C130.992 148.5 126.541 156.61 125.012 165.485C121.713 182.555 126.448 202.75 140.821 213.558C153.453 223.057 173.363 223.183 186.41 214.326C201.218 204.287 205.388 185.386 202.873 168.533C199.833 148.152 183.093 131.22 161.813 132.055C153.929 132.365 153.888 144.661 161.813 144.348C175.343 143.818 185.982 153.02 189.703 165.731C193.153 177.513 191.593 192.879 183.016 201.352C175.412 208.853 161.057 210.679 151.514 205.782C140.417 200.092 135.958 186.635 136.316 174.157C136.731 159.582 146.397 145.381 161.807 144.371C163.426 144.335 164.968 143.676 166.113 142.531C167.258 141.386 167.918 139.843 167.954 138.225C167.943 136.597 167.292 135.039 166.142 133.887C164.992 132.735 163.435 132.082 161.807 132.068Z" fill="#211715"/>
<path id="Vector_36" d="M62.8937 176.719C61.9581 176.741 61.0366 176.952 60.184 177.338C59.3314 177.724 58.5652 178.277 57.931 178.965C57.2968 179.654 56.8076 180.462 56.4924 181.344C56.1772 182.225 56.0425 183.16 56.0964 184.095C56.0595 185.056 56.2309 186.014 56.5988 186.902C56.9667 187.791 57.5224 188.59 58.2279 189.244C58.9333 189.898 59.7718 190.391 60.6859 190.691C61.6 190.99 62.5681 191.089 63.5237 190.979C64.4873 191.012 65.4466 190.835 66.3345 190.459C67.2223 190.083 68.0174 189.518 68.664 188.803C69.3107 188.087 69.7933 187.24 70.0782 186.319C70.3631 185.397 70.4433 184.425 70.3133 183.47C70.286 182.534 70.0705 181.613 69.6794 180.762C69.2884 179.912 68.73 179.148 68.0374 178.518C67.3449 177.888 66.5325 177.404 65.6488 177.095C64.765 176.786 63.828 176.658 62.8937 176.719Z" fill="#211715"/>
<path id="Vector_37" d="M82.3404 175.848C81.4052 175.871 80.4843 176.083 79.6325 176.469C78.7806 176.856 78.0152 177.41 77.3818 178.098C76.7484 178.787 76.2598 179.595 75.9453 180.476C75.6307 181.357 75.4966 182.293 75.5508 183.226C75.5121 184.188 75.6822 185.147 76.0496 186.036C76.4169 186.926 76.9726 187.725 77.6786 188.379C78.3845 189.033 79.2238 189.526 80.1387 189.825C81.0535 190.123 82.0223 190.22 82.9781 190.108C83.9402 190.141 84.8978 189.963 85.7841 189.587C86.6704 189.212 87.4641 188.647 88.1098 187.933C88.7555 187.219 89.2377 186.373 89.5227 185.453C89.8077 184.534 89.8887 183.563 89.76 182.609C89.7341 181.672 89.5195 180.751 89.1291 179.899C88.7387 179.047 88.1804 178.282 87.4877 177.651C86.7951 177.02 85.9822 176.535 85.0978 176.225C84.2134 175.915 83.2755 175.787 82.3404 175.848Z" fill="#211715"/>
<path id="Vector_38" d="M101.787 174.99C100.851 175.013 99.9298 175.223 99.0772 175.61C98.2247 175.996 97.4585 176.55 96.8243 177.238C96.1902 177.927 95.7009 178.736 95.3858 179.617C95.0706 180.498 94.936 181.434 94.9898 182.368C95.073 184.254 95.9018 186.029 97.2937 187.303C97.9829 187.934 98.7897 188.423 99.6679 188.742C100.546 189.061 101.479 189.204 102.412 189.163C103.346 189.122 104.262 188.897 105.108 188.502C105.955 188.107 106.716 187.549 107.347 186.859C107.977 186.17 108.467 185.363 108.786 184.485C109.105 183.607 109.248 182.674 109.207 181.741C109.179 180.805 108.963 179.885 108.572 179.034C108.181 178.183 107.623 177.42 106.93 176.79C106.238 176.16 105.425 175.676 104.542 175.367C103.658 175.057 102.721 174.929 101.787 174.99Z" fill="#211715"/>
<path id="Vector_39" d="M224.376 211.909C224.714 208.587 225.618 205.347 227.047 202.33C228.981 199.118 231.467 196.274 234.393 193.929C237.625 191.079 236.124 186.443 233.148 184.277C222.419 176.457 229.247 158.348 242.112 158.278C244.989 158.266 247.803 159.126 250.181 160.747C252.558 162.367 254.389 164.67 255.43 167.353C257.527 172.826 256.577 180.281 252.1 183.959C251.441 184.627 250.943 185.435 250.643 186.324C250.343 187.213 250.25 188.158 250.37 189.089C250.49 190.019 250.82 190.91 251.336 191.694C251.851 192.477 252.538 193.133 253.345 193.612C263.249 198.593 267.206 209.248 269.355 219.508C270.976 227.247 282.829 223.972 281.21 216.24C278.437 203.004 272.205 189.363 259.548 182.999L260.793 192.651C267.214 187.373 269.383 177.979 268.507 169.978C268.081 165.768 266.669 161.717 264.385 158.155C262.102 154.593 259.011 151.618 255.363 149.473C238.911 139.997 218.785 151.105 215.922 169.284C215.111 174.161 215.719 179.168 217.674 183.709C219.63 188.25 222.85 192.133 226.95 194.895L225.705 185.242C218.565 191.146 213.869 199.491 212.528 208.659C212.147 210.228 212.379 211.884 213.177 213.289C213.974 214.694 215.277 215.742 216.821 216.219C218.392 216.64 220.066 216.426 221.481 215.623C222.896 214.819 223.937 213.492 224.381 211.927L224.376 211.909Z" fill="#211715"/>
<path id="Vector_40" d="M69.0301 131.991C64.1204 132.16 59.2107 132.203 54.3036 132.416C52.6784 132.445 51.1238 133.085 49.9496 134.209C49.0869 135.069 48.4991 136.165 48.2607 137.359C48.0222 138.554 48.144 139.792 48.6105 140.917C49.0769 142.042 49.8671 143.003 50.8807 143.678C51.8943 144.354 53.0857 144.712 54.3036 144.709C59.2107 144.497 64.1204 144.453 69.0301 144.284C70.6557 144.258 72.211 143.617 73.3841 142.492C74.2467 141.632 74.8346 140.535 75.073 139.341C75.3115 138.147 75.1897 136.908 74.7232 135.783C74.2568 134.658 73.4666 133.697 72.453 133.022C71.4394 132.347 70.248 131.988 69.0301 131.991Z" fill="#211715"/>
<g id="tremynt1">
<path id="Vector_41" d="M542.897 291.865C561.384 294.106 578.651 302.43 589.805 317.707C609.671 344.914 604.71 388.804 579.078 410.663C551.503 434.18 504.093 429.841 481.484 401.533C458.874 373.225 463.274 329.129 491.646 306.968C505.64 296.042 525.377 289.742 542.897 291.865Z" fill="#FFDA71"/>
<path id="Vector_42" d="M545.046 331.335C540.59 335.893 536.756 341.031 532.496 345.767C531.374 346.942 530.734 348.496 530.704 350.121C530.711 351.75 531.355 353.312 532.496 354.474C533.649 355.627 535.213 356.275 536.843 356.275C538.473 356.275 540.036 355.627 541.189 354.474C545.451 349.739 549.285 344.601 553.739 340.042C554.87 338.873 555.511 337.315 555.531 335.689C555.523 334.059 554.88 332.497 553.739 331.335C552.58 330.186 551.016 329.542 549.385 329.542C547.757 329.558 546.198 330.2 545.031 331.335H545.046Z" fill="#211715"/>
<path id="Vector_43" d="M518.151 339.435C519.501 341 520.8 342.604 522.065 344.238L521.104 342.993C523.845 346.55 526.38 350.249 528.975 353.911C529.82 355.262 531.124 356.263 532.648 356.728C534.247 357.155 535.95 356.932 537.386 356.109C538.763 355.293 539.772 353.977 540.203 352.436C540.426 351.646 540.486 350.818 540.379 350.004C540.273 349.19 540.002 348.406 539.583 347.7C535.485 341.922 531.467 336.103 526.836 330.735C525.977 329.873 524.88 329.285 523.686 329.046C522.491 328.808 521.253 328.93 520.128 329.396C519.003 329.863 518.042 330.653 517.367 331.666C516.692 332.68 516.333 333.871 516.336 335.089C516.397 336.708 517.032 338.251 518.128 339.443L518.151 339.435Z" fill="#211715"/>
<path id="Vector_44" d="M521.763 361.858C526.885 361.602 532.007 361.661 537.13 361.707C541.706 361.751 546.35 361.689 550.901 362.114C552.53 362.11 554.09 361.46 555.242 360.309C556.394 359.157 557.043 357.596 557.048 355.968C557.006 354.35 556.345 352.811 555.201 351.667C554.057 350.523 552.518 349.862 550.901 349.821C546.342 349.396 541.706 349.457 537.13 349.414C532.007 349.368 526.885 349.301 521.763 349.565C520.132 349.565 518.569 350.212 517.416 351.365C516.264 352.518 515.616 354.081 515.616 355.712C515.616 357.342 516.264 358.905 517.416 360.058C518.569 361.211 520.132 361.858 521.763 361.858Z" fill="#211715"/>
<path id="Vector_45" d="M521.169 378.063C530.591 378.009 540.006 377.965 549.426 378.234C551.051 378.22 552.607 377.568 553.756 376.418C554.906 375.269 555.558 373.713 555.572 372.087C555.541 370.467 554.884 368.921 553.738 367.775C552.592 366.629 551.046 365.972 549.426 365.941C540.006 365.672 530.591 365.715 521.169 365.769C519.538 365.769 517.975 366.417 516.822 367.569C515.669 368.722 515.022 370.286 515.022 371.916C515.022 373.546 515.669 375.109 516.822 376.262C517.975 377.415 519.538 378.063 521.169 378.063Z" fill="#211715"/>
<path id="Vector_46" d="M530.796 349.035C529.131 360.901 528.292 372.868 528.283 384.85C528.297 386.475 528.95 388.031 530.099 389.18C531.249 390.33 532.804 390.982 534.43 390.996C536.051 390.966 537.597 390.309 538.743 389.163C539.889 388.016 540.547 386.47 540.577 384.85C540.729 379.297 540.958 373.748 541.263 368.202C541.44 365.07 541.642 361.94 541.914 358.813C542.032 357.422 542.17 356.032 542.324 354.643C542.357 354.336 542.603 352.321 542.464 353.435C542.326 354.549 542.464 353.486 542.5 353.237C542.549 352.928 542.598 352.615 542.649 352.305C543.047 350.732 542.822 349.065 542.021 347.653C541.219 346.242 539.904 345.194 538.349 344.729C536.777 344.316 535.107 344.534 533.694 345.336C532.281 346.138 531.238 347.461 530.788 349.022L530.796 349.035Z" fill="#211715"/>
<path id="Tremynt1" d="M542.897 298.012C556.757 299.545 569.715 305.637 579.737 315.333C588.35 324.309 593.813 335.841 595.303 348.192C598.492 371.988 589.075 398.506 567.868 411.158C547.21 423.484 519.483 422.286 499.363 409.429C478.718 396.236 469.526 370.036 474.487 346.44C477.169 332.835 484.536 320.6 495.306 311.865C508.787 301.278 525.841 296.316 542.897 298.017C544.525 298.007 546.083 297.357 547.233 296.206C548.384 295.055 549.035 293.497 549.044 291.87C549.007 290.251 548.347 288.709 547.203 287.565C546.058 286.42 544.516 285.76 542.897 285.723C525.154 284.129 507.405 288.714 492.653 298.701C480.125 307.084 470.595 319.242 465.446 333.409C455.345 360.693 462.316 394.349 484.618 413.655C495.758 422.934 509.229 428.979 523.566 431.132C537.903 433.285 552.556 431.463 565.93 425.864C593.452 414.139 608.701 385.142 608.14 355.891C608.034 339.249 602.238 323.144 591.715 310.251C579.478 295.653 561.437 288.082 542.897 285.723C541.27 285.732 539.711 286.382 538.56 287.533C537.41 288.684 536.759 290.242 536.751 291.87C536.791 293.487 537.451 295.027 538.596 296.17C539.74 297.313 541.28 297.973 542.897 298.012Z" fill="#211715"/>
</g>
<g id="tremynt2">
<path id="Vector_47" d="M141.517 400.201C147.795 400.965 153.659 403.804 157.446 409.014C164.193 418.294 162.508 433.264 153.804 440.719C144.439 448.74 128.34 447.26 120.662 437.605C112.984 427.95 114.478 412.91 124.113 405.352C128.865 401.625 135.567 399.476 141.517 400.201Z" fill="#FFDA71"/>
<path id="Vector_48" d="M142.247 413.662C140.734 415.217 139.432 416.97 137.985 418.585C137.604 418.986 137.387 419.516 137.376 420.07C137.379 420.626 137.597 421.158 137.985 421.555C138.377 421.948 138.908 422.169 139.461 422.169C140.015 422.169 140.546 421.948 140.937 421.555C142.384 419.94 143.686 418.187 145.199 416.632C145.583 416.234 145.801 415.702 145.808 415.147C145.805 414.592 145.586 414.059 145.199 413.662C144.805 413.271 144.274 413.051 143.72 413.051C143.167 413.057 142.638 413.276 142.242 413.662H142.247Z" fill="#211715"/>
<path id="Vector_49" d="M133.114 416.425C133.572 416.959 134.013 417.506 134.443 418.063L134.117 417.639C135.047 418.852 135.908 420.113 136.789 421.363C137.076 421.823 137.519 422.165 138.036 422.323C138.579 422.469 139.158 422.393 139.645 422.112C140.113 421.834 140.456 421.385 140.602 420.859C140.678 420.59 140.698 420.308 140.662 420.03C140.626 419.752 140.534 419.485 140.392 419.244C139 417.274 137.635 415.289 136.063 413.458C135.771 413.164 135.399 412.963 134.993 412.882C134.587 412.801 134.167 412.842 133.785 413.001C133.403 413.16 133.077 413.43 132.847 413.776C132.618 414.121 132.496 414.528 132.497 414.943C132.518 415.495 132.734 416.021 133.106 416.428L133.114 416.425Z" fill="#211715"/>
<path id="Vector_50" d="M134.34 424.073C136.08 423.986 137.819 424.006 139.558 424.022C141.113 424.036 142.689 424.015 144.235 424.16C144.788 424.159 145.318 423.937 145.709 423.545C146.1 423.152 146.321 422.62 146.322 422.064C146.308 421.512 146.084 420.987 145.695 420.597C145.307 420.207 144.784 419.982 144.235 419.968C142.687 419.823 141.113 419.844 139.558 419.829C137.819 419.813 136.08 419.79 134.34 419.88C133.786 419.88 133.256 420.101 132.864 420.494C132.473 420.887 132.253 421.421 132.253 421.977C132.253 422.533 132.473 423.066 132.864 423.459C133.256 423.852 133.786 424.073 134.34 424.073Z" fill="#211715"/>
<path id="Vector_51" d="M134.138 429.6C137.338 429.582 140.535 429.567 143.734 429.658C144.286 429.654 144.814 429.431 145.205 429.039C145.595 428.647 145.817 428.117 145.821 427.562C145.811 427.009 145.588 426.482 145.199 426.091C144.809 425.7 144.284 425.476 143.734 425.466C140.535 425.374 137.338 425.389 134.138 425.407C133.585 425.407 133.054 425.628 132.662 426.021C132.271 426.414 132.051 426.947 132.051 427.503C132.051 428.059 132.271 428.593 132.662 428.986C133.054 429.379 133.585 429.6 134.138 429.6Z" fill="#211715"/>
<path id="Vector_52" d="M137.408 419.699C136.842 423.746 136.557 427.828 136.554 431.915C136.559 432.469 136.781 433 137.171 433.392C137.562 433.784 138.09 434.006 138.642 434.011C139.192 434.001 139.717 433.777 140.106 433.386C140.496 432.995 140.719 432.468 140.729 431.915C140.781 430.021 140.858 428.128 140.962 426.237C141.022 425.169 141.091 424.101 141.183 423.035C141.223 422.56 141.27 422.086 141.322 421.612C141.334 421.508 141.417 420.82 141.37 421.2C141.323 421.58 141.37 421.218 141.382 421.133C141.399 421.027 141.415 420.921 141.433 420.815C141.568 420.278 141.492 419.71 141.219 419.228C140.947 418.747 140.501 418.39 139.972 418.231C139.439 418.09 138.872 418.164 138.392 418.438C137.912 418.711 137.558 419.163 137.405 419.695L137.408 419.699Z" fill="#211715"/>
<path id="Tremynt1_2" d="M141.517 402.297C146.224 402.82 150.624 404.898 154.027 408.205C156.952 411.266 158.807 415.2 159.314 419.412C160.396 427.528 157.198 436.572 149.997 440.888C142.982 445.092 133.566 444.683 126.733 440.298C119.722 435.799 116.601 426.862 118.286 418.815C119.197 414.174 121.698 410.001 125.356 407.022C129.934 403.411 135.725 401.719 141.517 402.299C142.07 402.295 142.599 402.074 142.99 401.681C143.38 401.289 143.601 400.757 143.604 400.202C143.592 399.65 143.368 399.124 142.979 398.734C142.59 398.343 142.067 398.118 141.517 398.106C135.492 397.562 129.464 399.126 124.455 402.532C120.201 405.391 116.964 409.538 115.216 414.37C111.785 423.676 114.153 435.155 121.726 441.739C125.509 444.904 130.084 446.966 134.953 447.7C139.821 448.435 144.797 447.813 149.339 445.903C158.685 441.904 163.863 432.014 163.673 422.038C163.637 416.362 161.668 410.869 158.095 406.472C153.939 401.492 147.813 398.91 141.517 398.106C140.964 398.109 140.435 398.331 140.044 398.723C139.654 399.116 139.433 399.647 139.43 400.202C139.443 400.754 139.668 401.279 140.056 401.669C140.445 402.059 140.968 402.284 141.517 402.297Z" fill="#211715"/>
</g>
<g id="tremynt3">
<path id="Vector_53" d="M296.437 242.301C305.853 243.447 314.649 247.706 320.33 255.522C330.45 269.441 327.923 291.895 314.867 303.079C300.82 315.11 276.671 312.89 265.154 298.408C253.637 283.925 255.878 261.366 270.33 250.028C277.459 244.438 287.512 241.215 296.437 242.301Z" fill="#FFDA71"/>
<path id="Vector_54" d="M297.531 262.494C295.261 264.826 293.308 267.454 291.139 269.877C290.567 270.478 290.241 271.273 290.226 272.105C290.23 272.938 290.557 273.737 291.139 274.332C291.726 274.922 292.522 275.253 293.353 275.253C294.183 275.253 294.979 274.922 295.567 274.332C297.737 271.909 299.69 269.281 301.959 266.949C302.535 266.35 302.862 265.553 302.872 264.721C302.868 263.888 302.541 263.088 301.959 262.494C301.369 261.906 300.572 261.576 299.741 261.576C298.912 261.585 298.118 261.913 297.524 262.494H297.531Z" fill="#211715"/>
<path id="Vector_55" d="M283.832 266.638C284.519 267.439 285.181 268.259 285.825 269.095L285.336 268.458C286.732 270.278 288.023 272.17 289.345 274.044C289.775 274.735 290.44 275.247 291.216 275.485C292.031 275.703 292.898 275.59 293.629 275.168C294.331 274.751 294.845 274.078 295.064 273.289C295.178 272.885 295.209 272.462 295.154 272.045C295.1 271.629 294.962 271.228 294.749 270.866C292.661 267.91 290.614 264.933 288.256 262.187C287.818 261.746 287.259 261.445 286.651 261.323C286.042 261.201 285.412 261.263 284.839 261.502C284.266 261.741 283.776 262.145 283.432 262.663C283.088 263.182 282.905 263.791 282.907 264.415C282.938 265.242 283.262 266.032 283.82 266.642L283.832 266.638Z" fill="#211715"/>
<path id="Vector_56" d="M285.671 278.11C288.281 277.979 290.89 278.009 293.499 278.032C295.83 278.055 298.195 278.023 300.514 278.241C301.343 278.238 302.138 277.906 302.725 277.317C303.312 276.728 303.642 275.929 303.645 275.096C303.624 274.269 303.287 273.481 302.704 272.896C302.122 272.311 301.337 271.973 300.514 271.951C298.192 271.734 295.83 271.765 293.499 271.743C290.89 271.719 288.281 271.685 285.671 271.82C284.841 271.82 284.045 272.152 283.457 272.741C282.87 273.331 282.54 274.131 282.54 274.965C282.54 275.799 282.87 276.599 283.457 277.189C284.045 277.778 284.841 278.11 285.671 278.11Z" fill="#211715"/>
<path id="Vector_57" d="M285.369 286.4C290.168 286.372 294.964 286.35 299.762 286.488C300.59 286.481 301.383 286.147 301.968 285.559C302.554 284.97 302.886 284.175 302.893 283.343C302.878 282.514 302.543 281.723 301.959 281.137C301.375 280.55 300.588 280.214 299.762 280.198C294.964 280.061 290.168 280.083 285.369 280.111C284.538 280.111 283.742 280.442 283.155 281.032C282.567 281.621 282.238 282.421 282.238 283.255C282.238 284.089 282.567 284.889 283.155 285.479C283.742 286.069 284.538 286.4 285.369 286.4Z" fill="#211715"/>
<path id="Vector_58" d="M290.273 271.549C289.425 277.62 288.997 283.742 288.993 289.872C289 290.704 289.332 291.5 289.918 292.088C290.503 292.676 291.296 293.01 292.124 293.017C292.949 293.001 293.737 292.665 294.321 292.079C294.905 291.492 295.239 290.701 295.255 289.872C295.332 287.031 295.449 284.193 295.604 281.355C295.695 279.753 295.798 278.152 295.936 276.552C295.996 275.84 296.066 275.129 296.145 274.419C296.162 274.261 296.287 273.23 296.216 273.8C296.146 274.37 296.216 273.826 296.235 273.699C296.259 273.541 296.284 273.381 296.31 273.222C296.513 272.417 296.398 271.565 295.99 270.842C295.582 270.12 294.912 269.584 294.12 269.346C293.32 269.135 292.469 269.246 291.749 269.657C291.029 270.067 290.498 270.744 290.269 271.543L290.273 271.549Z" fill="#211715"/>
<path id="Tremynt1_3" d="M296.437 245.445C303.497 246.23 310.097 249.347 315.202 254.307C319.59 258.899 322.372 264.799 323.131 271.118C324.756 283.292 319.959 296.859 309.157 303.332C298.634 309.638 284.51 309.025 274.261 302.447C263.745 295.698 259.063 282.293 261.59 270.222C262.956 263.261 266.709 257.002 272.195 252.533C279.062 247.116 287.748 244.578 296.437 245.448C297.266 245.443 298.059 245.11 298.645 244.522C299.232 243.933 299.563 243.136 299.568 242.303C299.549 241.475 299.213 240.686 298.63 240.101C298.047 239.515 297.261 239.178 296.437 239.159C287.399 238.343 278.358 240.689 270.843 245.798C264.462 250.087 259.608 256.307 256.984 263.555C251.839 277.514 255.39 294.732 266.751 304.609C272.425 309.356 279.287 312.449 286.59 313.551C293.893 314.652 301.357 313.72 308.169 310.855C322.188 304.857 329.956 290.022 329.67 275.057C329.616 266.543 326.664 258.303 321.304 251.707C315.07 244.239 305.881 240.365 296.437 239.159C295.608 239.163 294.814 239.496 294.228 240.085C293.642 240.673 293.31 241.471 293.306 242.303C293.326 243.131 293.663 243.918 294.246 244.503C294.829 245.088 295.613 245.426 296.437 245.445Z" fill="#211715"/>
</g>
</g>
</svg>
