<svg width="401" height="290" viewBox="0 0 401 290" fill="none" xmlns="http://www.w3.org/2000/svg">
<g id="Mynt5">
<path id="Vector" d="M91.6268 6.25439H384.645C389.961 6.25439 394.027 10.3197 394.027 15.636V197.951C394.027 203.268 389.961 207.333 384.645 207.333H91.6268C86.3106 207.333 82.2452 203.268 82.2452 197.951V15.636C82.2452 10.3197 86.3106 6.25439 91.6268 6.25439Z" fill="#9DBE87"/>
<path id="Vector_2" d="M384.645 213.587H91.6268C82.8707 213.587 75.9908 206.708 75.9908 197.951V15.636C75.9908 6.87983 82.8707 0 91.6268 0H384.645C393.401 0 400.281 6.87983 400.281 15.636V197.951C400.281 206.395 393.401 213.587 384.645 213.587ZM91.6268 12.5088C89.7505 12.5088 88.4996 13.7597 88.4996 15.636V197.951C88.4996 199.828 89.7505 201.079 91.6268 201.079H384.645C386.521 201.079 387.772 199.828 387.772 197.951V15.636C387.772 13.7597 386.521 12.5088 384.645 12.5088H91.6268Z" fill="#131313"/>
<path id="Vector_3" d="M65.0457 32.8356H358.377C363.693 32.8356 367.758 36.9009 367.758 42.2172V224.533C367.758 229.849 363.693 233.914 358.377 233.914H65.0457C59.7294 233.914 55.6641 229.849 55.6641 224.533V42.2172C55.6641 36.9009 59.7294 32.8356 65.0457 32.8356Z" fill="#9DBE87"/>
<path id="Vector_4" d="M358.064 240.169H65.0457C56.2895 240.169 49.4097 233.289 49.4097 224.533V42.2172C49.4097 33.461 56.2895 26.5812 65.0457 26.5812H358.377C367.133 26.5812 374.013 33.461 374.013 42.2172V224.533C373.7 232.976 366.82 240.169 358.064 240.169ZM65.0457 39.09C63.1694 39.09 61.9185 40.3408 61.9185 42.2172V224.533C61.9185 226.409 63.1694 227.66 65.0457 227.66H358.377C360.253 227.66 361.504 226.409 361.504 224.533V42.2172C361.504 40.3408 360.253 39.09 358.377 39.09H65.0457Z" fill="#131313"/>
<path id="Vector_5" d="M40.6536 58.7913H333.984C339.301 58.7913 343.366 62.8566 343.366 68.1728V250.488C343.366 255.805 339.301 259.87 333.984 259.87H40.6536C35.3373 259.87 31.272 255.805 31.272 250.488V68.1728C31.272 63.1693 35.3373 58.7913 40.6536 58.7913Z" fill="#9DBE87"/>
<path id="Vector_6" d="M333.984 266.124H40.6536C31.8974 266.124 25.0176 259.244 25.0176 250.488V68.1728C25.0176 59.4167 31.8974 52.5369 40.6536 52.5369H333.984C342.741 52.5369 349.62 59.4167 349.62 68.1728V250.488C349.62 258.932 342.428 266.124 333.984 266.124ZM40.6536 65.0456C38.7772 65.0456 37.5264 66.2965 37.5264 68.1728V250.488C37.5264 252.365 38.7772 253.615 40.6536 253.615H333.984C335.861 253.615 337.112 252.365 337.112 250.488V68.1728C337.112 66.2965 335.861 65.0456 333.984 65.0456H40.6536Z" fill="#131313"/>
<path id="Vector_7" d="M15.636 81.9325H308.967C314.283 81.9325 318.348 85.9978 318.348 91.3141V273.63C318.348 278.946 314.283 283.011 308.967 283.011H15.636C10.3197 283.011 6.25439 278.946 6.25439 273.63V91.3141C6.25439 86.3106 10.3197 81.9325 15.636 81.9325Z" fill="#9DBE87"/>
<path id="Vector_8" d="M308.967 289.266H15.636C6.87983 289.266 0 282.386 0 273.63V91.3141C0 82.5579 6.87983 75.6781 15.636 75.6781H308.967C317.723 75.6781 324.603 82.5579 324.603 91.3141V273.63C324.603 282.386 317.41 289.266 308.967 289.266ZM15.636 88.1869C13.7597 88.1869 12.5088 89.4378 12.5088 91.3141V273.63C12.5088 275.506 13.7597 276.757 15.636 276.757H308.967C310.843 276.757 312.094 275.506 312.094 273.63V91.3141C312.094 89.4378 310.843 88.1869 308.967 88.1869H15.636Z" fill="#131313"/>
<path id="Vector_9" d="M269.564 254.866H55.0387C55.0387 240.169 42.8426 227.972 28.1448 227.972V133.531C42.8426 133.531 55.0387 121.335 55.0387 106.637H269.564C269.564 121.335 281.76 133.531 296.458 133.531V227.972C281.448 227.972 269.564 240.169 269.564 254.866Z" fill="#D6F0C5"/>
<path id="Vector_10" d="M269.564 261.121H55.0387C51.5987 261.121 48.7843 258.306 48.7843 254.866C48.7843 243.608 39.4027 234.227 28.1448 234.227C24.7049 234.227 21.8904 231.412 21.8904 227.972V133.531C21.8904 130.091 24.7049 127.277 28.1448 127.277C39.4027 127.277 48.7843 117.895 48.7843 106.637C48.7843 103.197 51.5987 100.383 55.0387 100.383H269.564C273.004 100.383 275.819 103.197 275.819 106.637C275.819 117.895 285.2 127.277 296.458 127.277C299.898 127.277 302.713 130.091 302.713 133.531V227.972C302.713 231.412 299.898 234.227 296.458 234.227C285.2 234.227 275.819 243.608 275.819 254.866C275.819 258.306 273.004 261.121 269.564 261.121ZM60.6676 248.612H263.623C266.124 235.478 276.757 224.845 289.891 222.344V139.16C276.757 136.658 266.124 126.026 263.623 112.892H60.6676C58.1658 126.026 47.5334 136.658 34.3992 139.16V222.031C47.5334 224.845 58.1658 235.478 60.6676 248.612Z" fill="#131313"/>
<path id="Vector_11" d="M162.927 223.282C152.92 223.282 142.287 219.529 134.782 209.835C132.593 207.02 133.219 203.268 135.72 201.079C138.535 198.89 142.287 199.515 144.476 202.017C151.982 211.711 163.552 212.024 171.058 209.522C177.312 207.333 181.065 203.268 181.065 198.89C181.065 194.824 171.37 192.01 162.927 189.508C149.793 185.443 133.219 180.752 133.219 165.116C133.219 157.611 137.909 150.731 146.04 146.665C156.047 141.662 172.934 139.786 188.883 151.356C191.697 153.545 192.323 157.298 190.133 160.112C187.944 162.927 184.192 163.552 181.377 161.363C170.745 153.545 158.862 153.858 151.669 157.611C147.916 159.487 145.415 162.301 145.415 165.116C145.415 171.058 154.171 173.872 166.054 177.625C178.876 181.377 192.948 185.755 192.948 198.89C192.948 208.584 185.755 217.34 174.497 221.405C171.37 222.344 166.992 223.282 162.927 223.282Z" fill="#131313"/>
<path id="Vector_12" d="M162.301 155.109C158.862 155.109 156.047 152.294 156.047 148.854V135.095C156.047 131.655 158.862 128.84 162.301 128.84C165.741 128.84 168.556 131.655 168.556 135.095V148.854C168.556 152.607 165.741 155.109 162.301 155.109Z" fill="#131313"/>
<path id="Vector_13" d="M162.301 235.165C158.862 235.165 156.047 232.351 156.047 228.911V218.591C156.047 215.151 158.862 212.337 162.301 212.337C165.741 212.337 168.556 215.151 168.556 218.591V228.911C168.556 232.351 165.741 235.165 162.301 235.165Z" fill="#131313"/>
<path id="Vector_14" d="M69.111 184.504C69.111 186.024 69.4103 187.529 69.9918 188.932C70.5733 190.336 71.4255 191.612 72.5 192.686C73.5744 193.761 74.8499 194.613 76.2538 195.194C77.6576 195.776 79.1622 196.075 80.6816 196.075C82.2011 196.075 83.7057 195.776 85.1095 195.194C86.5133 194.613 87.7889 193.761 88.8633 192.686C89.9377 191.612 90.79 190.336 91.3715 188.932C91.953 187.529 92.2523 186.024 92.2523 184.504C92.2523 181.436 91.0332 178.493 88.8633 176.323C86.6934 174.153 83.7504 172.934 80.6816 172.934C77.6129 172.934 74.6699 174.153 72.5 176.323C70.3301 178.493 69.111 181.436 69.111 184.504Z" fill="#AECD99"/>
<path id="Vector_15" d="M80.6816 202.017C70.9873 202.017 62.8566 194.199 62.8566 184.192C62.8566 174.185 70.6746 166.367 80.6816 166.367C90.3759 166.367 98.5067 174.185 98.5067 184.192C98.5067 194.199 90.3759 202.017 80.6816 202.017ZM80.6816 179.188C77.8672 179.188 75.3654 181.377 75.3654 184.504C75.3654 187.632 77.5544 189.821 80.6816 189.821C83.4961 189.821 85.9979 187.632 85.9979 184.504C85.9979 181.377 83.4961 179.188 80.6816 179.188Z" fill="#131313"/>
<path id="Vector_16" d="M232.976 184.504C232.976 187.573 234.195 190.516 236.365 192.686C238.535 194.856 241.478 196.075 244.547 196.075C247.615 196.075 250.558 194.856 252.728 192.686C254.898 190.516 256.117 187.573 256.117 184.504C256.117 181.436 254.898 178.493 252.728 176.323C250.558 174.153 247.615 172.934 244.547 172.934C241.478 172.934 238.535 174.153 236.365 176.323C234.195 178.493 232.976 181.436 232.976 184.504Z" fill="#AECD99"/>
<path id="Vector_17" d="M244.547 202.017C234.852 202.017 226.722 194.199 226.722 184.192C226.722 174.185 234.54 166.367 244.547 166.367C254.241 166.367 262.372 174.185 262.372 184.192C262.372 194.199 254.241 202.017 244.547 202.017ZM244.547 179.188C241.732 179.188 239.23 181.377 239.23 184.504C239.23 187.632 241.419 189.821 244.547 189.821C247.674 189.821 249.863 187.632 249.863 184.504C249.863 181.377 247.361 179.188 244.547 179.188Z" fill="#131313"/>
</g>
</svg>
