<svg width="196" height="196" viewBox="0 0 196 196" fill="none" xmlns="http://www.w3.org/2000/svg">
<g id="Mynt1">
<path id="Vector" d="M191.334 98C191.334 46.6665 149.334 4.6665 98 4.6665C46.6665 4.6665 4.6665 46.6665 4.6665 98C4.6665 149.334 46.6665 191.334 98 191.334C149.334 191.334 191.334 149.334 191.334 98Z" fill="#FFE100"/>
<path id="Vector_2" d="M18.6665 98C18.6665 49 56.9335 8.39996 105 5.13348C102.667 4.66699 100.334 4.66699 98 4.66699C46.6665 4.66645 4.6665 46.6664 4.6665 98C4.6665 149.333 46.6665 191.333 98 191.333C100.334 191.333 102.667 191.333 105 190.867C56.9335 187.6 18.6665 147 18.6665 98Z" fill="white"/>
<path id="Vector_3" d="M98 196C43.8665 196 0 152.134 0 98C0 43.8665 43.8665 0 98 0C152.134 0 196 43.8665 196 98C196 152.134 152.134 196 98 196ZM98 9.33352C49 9.33352 9.33352 49 9.33352 98C9.33352 147 49 186.666 98 186.666C147 186.666 186.666 147 186.666 98C186.666 49 147 9.33352 98 9.33352Z" fill="black"/>
<path id="Vector_4" d="M98 158.666C95.2 158.666 93.3335 156.8 93.3335 154V42C93.3335 39.2 95.2 37.3335 98 37.3335C100.8 37.3335 102.666 39.2 102.666 42V154C102.666 156.8 100.8 158.666 98 158.666Z" fill="black"/>
<path id="Vector_5" d="M98 149.333C86.3335 149.333 76.5335 145.133 70.9335 138.133C69.5335 136.267 69.5335 133 71.867 131.6C73.7335 130.2 77.0006 130.2 78.4006 132.533C82.1335 137.2 89.6 140 98 140C109.2 140 121.334 133 121.334 121.333C121.334 110.133 109.2 102.667 98 102.667C82.1335 102.667 65.3335 91.9335 65.3335 74.667C65.3335 57.4005 82.1335 46.667 98 46.667C109.666 46.667 119.466 50.4005 125.066 57.867C126.466 59.7335 126.466 63.0005 124.133 64.4005C122.266 65.8005 118.999 65.8005 117.599 63.467C113.866 58.8005 106.866 56.0005 97.9995 56.0005C86.7995 56.0005 74.6659 63.467 74.6659 74.667C74.6659 86.3335 86.7995 93.3335 97.9995 93.3335C113.866 93.3335 130.666 104.067 130.666 121.333C130.666 138.6 113.866 149.333 98 149.333Z" fill="black"/>
<path id="Vector_6" d="M121.334 79.3335C118.534 79.3335 116.667 77.467 116.667 74.667V46.667C116.667 43.867 118.534 42.0005 121.334 42.0005C124.134 42.0005 126 43.867 126 46.667V74.667C126 77.4664 124.134 79.3335 121.334 79.3335Z" fill="black"/>
<path id="Vector_7" d="M74.6665 154C71.8665 154 70 152.133 70 149.333V121.333C70 118.533 71.8665 116.667 74.6665 116.667C77.4665 116.667 79.333 118.533 79.333 121.333V149.333C79.3335 152.133 77.4665 154 74.6665 154Z" fill="black"/>
</g>
</svg>
