<svg width="280" height="280" viewBox="0 0 280 280" fill="none" xmlns="http://www.w3.org/2000/svg">
<g id="Mynt3">
<path id="Vector" d="M191.334 98C191.334 46.6665 149.334 4.6665 98 4.6665C46.6665 4.6665 4.66649 46.6665 4.66649 98C4.66649 149.334 46.6665 191.334 98 191.334C149.334 191.334 191.334 149.334 191.334 98Z" fill="#FFE100"/>
<path id="Vector_2" d="M18.6665 98C18.6665 49 56.9335 8.39996 105 5.13348C102.666 4.66699 100.334 4.66699 98 4.66699C46.6665 4.66645 4.66649 46.6664 4.66649 98C4.66649 149.333 46.6665 191.333 98 191.333C100.334 191.333 102.666 191.333 105 190.867C56.9335 187.6 18.6665 147 18.6665 98Z" fill="white"/>
<path id="Vector_3" d="M190.866 89.1335C191.333 91.9335 191.333 95.2 191.333 98C191.333 149.334 149.333 191.334 97.9995 191.334C95.1995 191.334 91.933 191.334 89.133 190.867C93.7994 238.467 133.466 275.334 181.999 275.334C233.333 275.334 275.333 233.334 275.333 182C275.334 133.467 238.466 93.8 190.866 89.1335Z" fill="#FFE100"/>
<g id="Group">
<path id="Vector_4" d="M190.866 88.6665C190.866 89.6 190.866 90.533 190.866 91C231.466 101.267 261.333 137.667 261.333 181.534C261.333 231 223.066 271.134 174.999 274.4C177.333 274.4 179.666 274.867 181.999 274.867C233.333 274.867 275.333 232.867 275.333 181.533C275.334 133 238.466 93.3335 190.866 88.6665Z" fill="#FFA800"/>
</g>
<path id="Vector_5" d="M98 196C43.8665 196 0 152.134 0 98C0 43.8665 43.8665 0 98 0C152.134 0 196 43.8665 196 98C196 152.134 152.134 196 98 196ZM98 9.33352C49 9.33352 9.33352 49 9.33352 98C9.33352 147 49 186.666 98 186.666C147 186.666 186.666 147 186.666 98C186.666 49 147 9.33352 98 9.33352Z" fill="black"/>
<path id="Vector_6" d="M98 158.666C95.2 158.666 93.3335 156.8 93.3335 154V42C93.3335 39.2 95.2 37.3335 98 37.3335C100.8 37.3335 102.666 39.2 102.666 42V154C102.666 156.8 100.8 158.666 98 158.666Z" fill="black"/>
<path id="Vector_7" d="M98 149.333C86.3335 149.333 76.5335 145.133 70.9335 138.133C69.5335 136.267 69.5335 133 71.867 131.6C73.7335 130.2 77.0006 130.2 78.4006 132.533C82.1335 137.2 89.6 140 98 140C109.2 140 121.334 133 121.334 121.333C121.334 110.133 109.2 102.667 98 102.667C82.1335 102.667 65.3335 91.9335 65.3335 74.667C65.3335 57.4005 82.1335 46.667 98 46.667C109.666 46.667 119.466 50.4005 125.066 57.867C126.466 59.7335 126.466 63.0005 124.133 64.4005C122.266 65.8005 118.999 65.8005 117.599 63.467C113.866 58.8005 106.866 56.0005 97.9995 56.0005C86.7995 56.0005 74.6659 63.467 74.6659 74.667C74.6659 86.3335 86.7995 93.3335 97.9995 93.3335C113.866 93.3335 130.666 104.067 130.666 121.333C130.666 138.6 113.866 149.333 98 149.333Z" fill="black"/>
<path id="Vector_8" d="M121.334 79.3335C118.534 79.3335 116.667 77.467 116.667 74.667V46.667C116.667 43.867 118.534 42.0005 121.334 42.0005C124.134 42.0005 126 43.867 126 46.667V74.667C126 77.4664 124.134 79.3335 121.334 79.3335Z" fill="black"/>
<path id="Vector_9" d="M74.6665 154C71.8665 154 70 152.133 70 149.333V121.333C70 118.533 71.8665 116.667 74.6665 116.667C77.4665 116.667 79.333 118.533 79.333 121.333V149.333C79.3335 152.133 77.4665 154 74.6665 154Z" fill="black"/>
<path id="Vector_10" d="M182 242.666C179.2 242.666 177.334 240.8 177.334 238V140C177.334 137.2 179.2 135.333 182 135.333C184.8 135.333 186.666 137.2 186.666 140V238C186.666 240.8 184.8 242.666 182 242.666Z" fill="black"/>
<path id="Vector_11" d="M205.334 163.333C202.534 163.333 200.667 161.467 200.667 158.667V130.667C200.667 127.867 202.534 126 205.334 126C208.134 126 210 127.867 210 130.667V158.667C210 161.466 208.134 163.333 205.334 163.333Z" fill="black"/>
<path id="Vector_12" d="M158.666 238C155.866 238 154 236.133 154 233.333V205.333C154 202.533 155.866 200.667 158.666 200.667C161.466 200.667 163.333 202.533 163.333 205.333V233.333C163.334 236.133 161.466 238 158.666 238Z" fill="black"/>
<path id="Vector_13" d="M182 280C131.134 280 89.1335 241.734 84.4665 191.334C84.4665 189.934 84.933 188.534 85.8665 187.6C86.8 186.667 88.2 186.2 89.6 186.2C92.4 186.667 95.2 186.667 98 186.667C147 186.667 186.666 147 186.666 98.0001C186.666 95.2001 186.666 92.4001 186.2 89.6001C186.2 88.2001 186.666 86.8001 187.6 85.8666C188.534 84.933 189.934 84.4666 191.334 84.4666C241.734 89.1336 280 131.134 280 182C280 236.134 236.134 280 182 280ZM94.2665 196C100.8 238.934 137.666 270.667 182 270.667C231 270.667 270.666 231 270.666 182C270.666 137.667 238.933 101.267 196 94.2666C196 95.6666 196 96.6001 196 98.0001C196 152.134 152.134 196 98 196C97.0665 196 95.6665 196 94.2665 196Z" fill="black"/>
<path id="Vector_14" d="M182 233.333C170.334 233.333 160.534 229.133 154.934 222.133C153.534 220.267 153.534 217 155.867 215.6C157.734 214.2 161.001 214.2 162.401 216.533C166.134 221.2 173.601 224 182.001 224C193.201 224 205.334 217 205.334 205.333C205.334 194.133 193.201 186.667 182.001 186.667C170.334 186.667 159.134 181.067 153.534 172.667C152.134 170.801 152.601 168.001 154.468 166.601C165.201 157.734 173.601 146.534 179.201 133.934C180.135 132.068 181.535 131.134 183.401 131.134C194.135 131.601 203.468 135.334 208.601 142.334C210.001 144.201 210.001 147.468 207.668 148.868C205.801 150.268 202.534 150.268 201.134 147.934C197.868 143.734 192.734 141.401 185.734 140.468C180.134 151.668 172.668 161.934 163.334 170.801C167.534 175.001 174.534 177.801 181.534 177.801C197.401 177.801 214.201 188.535 214.201 205.801C214.201 223.068 197.866 233.333 182 233.333Z" fill="black"/>
</g>
</svg>
