<svg width="450" height="420" viewBox="0 0 450 420" fill="none" xmlns="http://www.w3.org/2000/svg">
<g id="Mynt2">
<path id="Vector" d="M277.61 44.6247V14.5617C277.61 10.4115 274.244 7.0462 270.094 7.0462H44.6238C40.4736 7.0462 37.1083 10.4115 37.1083 14.5617V44.6247C37.1083 48.7749 40.4736 52.1402 44.6238 52.1402H14.5617C10.4115 52.1402 7.04617 55.5056 7.04617 59.6558V89.7187C7.04617 93.8689 10.4115 97.2343 14.5617 97.2343H29.5928C25.4426 97.2343 22.0772 100.6 22.0772 104.75V134.813C22.0772 138.963 25.4426 142.328 29.5928 142.328H14.5617C10.4115 142.328 7.04617 145.694 7.04617 149.844V179.907C7.04617 184.057 10.4115 187.422 14.5617 187.422H44.6247C40.4745 187.422 37.1092 190.788 37.1092 194.938V225.001C37.1092 229.151 40.4745 232.516 44.6247 232.516H14.5617C10.4115 232.516 7.04617 235.882 7.04617 240.032V270.095C7.04617 274.245 10.4115 277.61 14.5617 277.61H29.5928C25.4426 277.61 22.0772 280.976 22.0772 285.126V315.189C22.0772 319.339 25.4426 322.704 29.5928 322.704H14.5617C10.4115 322.704 7.04617 326.07 7.04617 330.22V360.283C7.04617 364.433 10.4115 367.798 14.5617 367.798H44.6247C40.4745 367.798 37.1092 371.164 37.1092 375.314V405.377C37.1092 409.527 40.4745 412.893 44.6247 412.893H270.094C274.244 412.893 277.61 409.527 277.61 405.377V194.938C277.61 190.788 274.244 187.422 270.094 187.422H240.031C244.181 187.422 247.547 184.057 247.547 179.907V149.844C247.547 145.694 244.181 142.328 240.031 142.328H255.062C259.212 142.328 262.578 138.963 262.578 134.813V104.75C262.578 100.6 259.212 97.2343 255.062 97.2343H240.031C244.181 97.2343 247.547 93.8689 247.547 89.7187V59.6558C247.547 55.5056 244.181 52.1402 240.031 52.1402H270.094C274.244 52.1402 277.61 48.7749 277.61 44.6247Z" fill="#FFDC64"/>
<path id="Vector_2" d="M270.094 187.422H240.031C244.181 187.422 247.547 184.057 247.547 179.907V171.387C206.995 196.577 179.906 241.392 179.906 292.641C179.906 343.201 206.253 387.518 245.893 412.892H270.094C274.244 412.892 277.61 409.526 277.61 405.376V194.938C277.61 190.787 274.244 187.422 270.094 187.422Z" fill="#FFC850"/>
<g id="Group">
<path id="Vector_3" d="M232.516 142.328H217.484C213.334 142.328 209.969 138.963 209.969 134.813V104.75C209.969 100.6 213.334 97.2343 217.484 97.2343H232.516C236.666 97.2343 240.031 100.6 240.031 104.75V134.813C240.031 138.963 236.667 142.328 232.516 142.328Z" fill="#FFF082"/>
<path id="Vector_4" d="M217.484 97.2343H202.453C198.303 97.2343 194.938 93.869 194.938 89.7188V59.6558C194.938 55.5056 198.303 52.1403 202.453 52.1403H217.484C221.635 52.1403 225 55.5056 225 59.6558V89.7188C225 93.869 221.635 97.2343 217.484 97.2343Z" fill="#FFF082"/>
<path id="Vector_5" d="M217.484 187.422H202.453C198.303 187.422 194.938 184.057 194.938 179.907V149.844C194.938 145.694 198.303 142.328 202.453 142.328H217.484C221.635 142.328 225 145.694 225 149.844V179.907C225 184.057 221.635 187.422 217.484 187.422Z" fill="#FFF082"/>
</g>
<path id="Vector_6" d="M112.265 52.1402H142.328C138.178 52.1402 134.813 48.7749 134.813 44.6247V14.5617C134.813 10.4115 138.178 7.0462 142.328 7.0462H44.6238C40.4736 7.0462 37.1083 10.4115 37.1083 14.5617V44.6247C37.1083 48.7749 40.4736 52.1402 44.6238 52.1402H14.5617C10.4115 52.1402 7.04617 55.5056 7.04617 59.6558V89.7187C7.04617 93.8689 10.4115 97.2343 14.5617 97.2343H29.5928C25.4426 97.2343 22.0772 100.6 22.0772 104.75V134.813C22.0772 138.963 25.4426 142.328 29.5928 142.328H14.5617C10.4115 142.328 7.04617 145.694 7.04617 149.844V179.907C7.04617 184.057 10.4115 187.422 14.5617 187.422H44.6247C40.4745 187.422 37.1092 190.788 37.1092 194.938V225.001C37.1092 229.151 40.4745 232.516 44.6247 232.516H14.5617C10.4115 232.516 7.04617 235.882 7.04617 240.032V270.095C7.04617 274.245 10.4115 277.61 14.5617 277.61H29.5928C25.4426 277.61 22.0772 280.976 22.0772 285.126V315.189C22.0772 319.339 25.4426 322.704 29.5928 322.704H14.5617C10.4115 322.704 7.04617 326.07 7.04617 330.22V360.283C7.04617 364.433 10.4115 367.798 14.5617 367.798H44.6247C40.4745 367.798 37.1092 371.164 37.1092 375.314V405.377C37.1092 409.527 40.4745 412.893 44.6247 412.893H142.328C138.178 412.893 134.813 409.527 134.813 405.377V375.314C134.813 371.164 138.178 367.798 142.328 367.798H112.265C108.115 367.798 104.75 364.433 104.75 360.283V330.22C104.75 326.07 108.115 322.704 112.265 322.704H127.296C123.146 322.704 119.781 319.339 119.781 315.189V285.126C119.781 280.976 123.146 277.61 127.296 277.61H112.265C108.115 277.61 104.75 274.245 104.75 270.095V240.032C104.75 235.882 108.115 232.516 112.265 232.516H142.328C138.178 232.516 134.813 229.151 134.813 225.001V194.938C134.813 190.788 138.178 187.422 142.328 187.422H112.265C108.115 187.422 104.75 184.057 104.75 179.907V149.844C104.75 145.694 108.115 142.328 112.265 142.328H127.296C123.146 142.328 119.781 138.963 119.781 134.813V104.75C119.781 100.6 123.146 97.2343 127.296 97.2343H112.265C108.115 97.2343 104.75 93.8689 104.75 89.7187V59.6558C104.75 55.5056 108.114 52.1402 112.265 52.1402Z" fill="#FFC850"/>
<path id="Vector_7" d="M247.547 52.1402H232.516C228.365 52.1402 225 48.7749 225 44.6247V14.5617C225 10.4115 228.365 7.0462 232.516 7.0462H247.547C251.697 7.0462 255.062 10.4115 255.062 14.5617V44.6247C255.063 48.7749 251.698 52.1402 247.547 52.1402Z" fill="#FFF082"/>
<path id="Vector_8" d="M322.704 412.892C389.116 412.892 442.954 359.054 442.954 292.641C442.954 226.229 389.116 172.391 322.704 172.391C256.291 172.391 202.453 226.229 202.453 292.641C202.453 359.054 256.291 412.892 322.704 412.892Z" fill="#FFDC64"/>
<path id="Vector_9" d="M322.704 382.829C372.513 382.829 412.892 342.451 412.892 292.641C412.892 242.832 372.513 202.453 322.704 202.453C272.894 202.453 232.516 242.832 232.516 292.641C232.516 342.451 272.894 382.829 322.704 382.829Z" fill="#FFF082"/>
<path id="Vector_10" d="M322.704 165.345C301.039 165.345 280.625 170.791 262.749 180.376H254.569C254.573 180.219 254.593 180.065 254.593 179.907V149.844C254.593 149.685 254.574 149.531 254.569 149.374H255.062C263.092 149.374 269.624 142.842 269.624 134.813V104.75C269.624 96.7201 263.092 90.1881 255.062 90.1881H254.569C254.573 90.0307 254.593 89.8769 254.593 89.7187V59.6557C254.593 59.4967 254.574 59.3429 254.569 59.1864H270.093C278.123 59.1864 284.655 52.6544 284.655 44.6247V14.5617C284.655 6.53203 278.123 0 270.093 0H44.6238C36.5941 0 30.0621 6.53203 30.0621 14.5617V44.6247C30.0621 44.7838 30.0806 44.9376 30.0858 45.094H14.5617C6.53203 45.094 0 51.6261 0 59.6557V89.7187C0 97.7484 6.53203 104.28 14.5617 104.28H15.0548C15.0504 104.437 15.0311 104.592 15.0311 104.75V134.813C15.0311 134.972 15.0495 135.126 15.0548 135.282H14.5617C6.53203 135.282 0 141.814 0 149.844V179.907C0 187.936 6.53203 194.469 14.5617 194.469H30.0858C30.0814 194.626 30.0621 194.78 30.0621 194.938V225.001C30.0621 225.16 30.0806 225.314 30.0858 225.47H14.5617C6.53203 225.47 0 232.002 0 240.032V270.095C0 278.125 6.53203 284.657 14.5617 284.657H15.0548C15.0504 284.813 15.0311 284.968 15.0311 285.126V315.189C15.0311 315.348 15.0495 315.502 15.0548 315.658H14.5617C6.53203 315.658 0 322.19 0 330.219V360.282C0 368.312 6.53203 374.844 14.5617 374.844H30.0858C30.0814 375 30.0621 375.155 30.0621 375.313V405.376C30.0621 413.406 36.5941 419.938 44.6238 419.938H270.093C275.179 419.938 279.657 417.312 282.262 413.35C294.973 417.62 308.572 419.938 322.703 419.938C392.894 419.938 449.999 362.833 449.999 292.641C449.999 222.45 392.895 165.345 322.704 165.345ZM255.063 104.28C255.322 104.28 255.532 104.491 255.532 104.749V134.812C255.532 135.07 255.322 135.281 255.063 135.281H240.032H29.5928C29.3335 135.281 29.1234 135.069 29.1234 134.812V104.749C29.1234 104.491 29.3335 104.28 29.5928 104.28H240.031H255.063ZM44.1545 14.5617C44.1545 14.3033 44.3645 14.0924 44.6238 14.0924H270.093C270.352 14.0924 270.562 14.3042 270.562 14.5617V44.6247C270.562 44.8831 270.352 45.094 270.093 45.094H240.03H44.6238C44.3645 45.094 44.1545 44.8822 44.1545 44.6247V14.5617ZM14.5617 90.1881C14.3024 90.1881 14.0924 89.9763 14.0924 89.7187V59.6557C14.0924 59.3974 14.3024 59.1864 14.5617 59.1864H44.6247H240.032C240.291 59.1864 240.501 59.3982 240.501 59.6557V89.7187C240.501 89.9771 240.291 90.1881 240.032 90.1881H29.5928H14.5617ZM14.5617 180.376C14.3024 180.376 14.0924 180.164 14.0924 179.907V149.844C14.0924 149.585 14.3024 149.374 14.5617 149.374H29.5928H240.031C240.29 149.374 240.5 149.586 240.5 149.844V179.907C240.5 180.165 240.29 180.376 240.031 180.376H44.6238H14.5617ZM241.756 194.468C231.125 203.249 221.947 213.724 214.621 225.469H44.6238C44.3645 225.469 44.1545 225.257 44.1545 225V194.937C44.1545 194.679 44.3645 194.468 44.6238 194.468H240.031H241.756ZM14.5617 270.564C14.3024 270.564 14.0924 270.352 14.0924 270.095V240.032C14.0924 239.773 14.3024 239.563 14.5617 239.563H207.016C202.53 249.301 199.236 259.697 197.329 270.564H29.5928H14.5617ZM197.497 315.658H29.5928C29.3335 315.658 29.1234 315.446 29.1234 315.189V285.126C29.1234 284.868 29.3335 284.657 29.5928 284.657H195.665C195.5 287.299 195.407 289.96 195.407 292.642C195.407 300.499 196.128 308.19 197.497 315.658ZM14.5617 360.751C14.3024 360.751 14.0924 360.54 14.0924 360.282V330.219C14.0924 329.961 14.3024 329.75 14.5617 329.75H200.93C204.302 340.792 209.136 351.201 215.208 360.751H44.6238H14.5617ZM44.6238 405.845C44.3645 405.845 44.1545 405.635 44.1545 405.376V375.313C44.1545 375.055 44.3645 374.844 44.6238 374.844H225C225.192 374.844 225.38 374.83 225.568 374.816C236.351 387.542 249.579 398.133 264.527 405.846L44.6238 405.845ZM322.704 405.845C260.282 405.845 209.499 355.062 209.499 292.641C209.499 230.219 260.282 179.436 322.704 179.436C385.125 179.436 435.908 230.219 435.908 292.641C435.908 355.062 385.124 405.845 322.704 405.845Z" fill="black"/>
<path id="Vector_11" d="M322.704 195.407C269.089 195.407 225.47 239.026 225.47 292.641C225.47 346.255 269.089 389.874 322.704 389.874C376.318 389.874 419.937 346.255 419.937 292.641C419.937 239.026 376.319 195.407 322.704 195.407ZM322.704 375.783C276.859 375.783 239.562 338.486 239.562 292.641C239.562 246.797 276.859 209.5 322.704 209.5C368.548 209.5 405.845 246.797 405.845 292.641C405.845 338.486 368.548 375.783 322.704 375.783Z" fill="black"/>
<path id="Vector_12" d="M345.72 267.276C345.72 271.167 348.875 274.322 352.767 274.322C356.658 274.322 359.813 271.168 359.813 267.276C359.813 254.007 347.076 243.284 329.75 240.971V240.032C329.75 236.141 326.595 232.986 322.704 232.986C318.813 232.986 315.657 236.14 315.657 240.032V240.971C298.332 243.284 285.594 254.007 285.594 267.276C285.594 286.044 302.179 293.34 315.657 297.79V330.054C305.977 328.249 299.687 322.9 299.687 318.008C299.687 314.117 296.532 310.961 292.641 310.961C288.75 310.961 285.594 314.116 285.594 318.008C285.594 331.277 298.332 342 315.657 344.313V345.252C315.657 349.143 318.812 352.298 322.704 352.298C326.595 352.298 329.75 349.144 329.75 345.252V344.313C347.076 342 359.813 331.277 359.813 318.008C359.813 299.239 343.228 291.944 329.75 287.494V255.23C339.429 257.035 345.72 262.383 345.72 267.276ZM299.687 267.276C299.687 262.383 305.977 257.035 315.657 255.23V282.791C303.636 278.203 299.687 274.054 299.687 267.276ZM345.72 318.007C345.72 322.9 339.43 328.248 329.75 330.053V302.492C341.771 307.079 345.72 311.229 345.72 318.007Z" fill="black"/>
</g>
</svg>
