<svg width="320" height="180" viewBox="0 0 320 180" fill="none" xmlns="http://www.w3.org/2000/svg">
<g id="Mynt4">
<path id="Vector" d="M315 165C315 170.5 310.5 175 305 175H15C9.5 175 5 170.5 5 165V15C5 9.5 9.5 5 15 5H305C310.5 5 315 9.5 315 15V165Z" fill="#B8CA43"/>
<path id="Vector_2" d="M305 180H15C6.5 180 0 173.5 0 165V15C0 6.5 6.5 0 15 0H305C313.5 0 320 6.5 320 15V165C320 173.5 313.5 180 305 180ZM15 10C12 10 10 12 10 15V165C10 168 12 170 15 170H305C308 170 310 168 310 165V15C310 12 308 10 305 10H15Z" fill="#231C1C"/>
<path id="Vector_3" d="M290 130V50C279 50 270 41 270 30H50C50 41 41 50 30 50V130C41 130 50 139 50 150H270C270 139 279 130 290 130Z" fill="#B8CA43"/>
<path id="Vector_4" d="M275 155H45V150C45 141.5 38.5 135 30 135H25V45H30C38.5 45 45 38.5 45 30V25H275V30C275 38.5 281.5 45 290 45H295V135H290C281.5 135 275 141.5 275 150V155ZM54.5 145H265.5C267.5 135 275 127.5 285 125.5V54.5C275 52.5 267.5 45 265.5 35H54.5C52.5 45 45 52.5 35 54.5V125.5C45 127.5 52.5 135 54.5 145Z" fill="#231C1C"/>
<path id="Vector_5" d="M95 90C95 99.1925 96.6813 108.295 99.9478 116.788C103.214 125.281 108.002 132.997 114.038 139.497C120.074 145.998 127.239 151.154 135.126 154.672C143.012 158.189 151.464 160 160 160C168.536 160 176.988 158.189 184.874 154.672C192.761 151.154 199.926 145.998 205.962 139.497C211.998 132.997 216.786 125.281 220.052 116.788C223.319 108.295 225 99.1925 225 90C225 80.8075 223.319 71.7049 220.052 63.2122C216.786 54.7194 211.998 47.0026 205.962 40.5025C193.772 27.375 177.239 20 160 20C142.761 20 126.228 27.375 114.038 40.5025C101.848 53.6301 95 71.4349 95 90Z" fill="#E1E0A6"/>
<path id="Vector_6" d="M160 165C121.5 165 90 131.5 90 90C90 48.5 121.5 15 160 15C198.5 15 230 48.5 230 90C230 131.5 198.5 165 160 165ZM160 25C127 25 100 54 100 90C100 126 127 155 160 155C193 155 220 126 220 90C220 54 193 25 160 25Z" fill="#231C1C"/>
<path id="Vector_7" d="M155 20H165V160H155V20Z" fill="#231C1C"/>
<path id="Vector_8" d="M160 145C151.5 145 143.5 141.5 138 135.5C133 130 130 122.5 130 115H140C140 120 142 125 145.5 128.5C149.5 132.5 154.5 135 160 135C171 135 180 126 180 115C180 104 171 95 160 95C143.5 95 130 81.5 130 65C130 48.5 143.5 35 160 35C176.5 35 190 48.5 190 65H180C180 54 171 45 160 45C149 45 140 54 140 65C140 76 149 85 160 85C176.5 85 190 98.5 190 115C190 131.5 176.5 145 160 145Z" fill="#231C1C"/>
</g>
</svg>
